<svg width="88" height="88" xmlns="http://www.w3.org/2000/svg">
 <defs>
  <style type="text/css">
   <![CDATA[
    .fil0 {fill:#B0CB1F}
   ]]>
  </style>
 </defs>
 <g>
  <title>background</title>
  <rect fill="none" id="canvas_background" height="90" width="90" y="-1" x="-1"/>
 </g>
 <g>
  <title>Layer 1</title>
  <g stroke="null" id="Слой_x0020_1">
   <metadata stroke="null" transform="translate(3.7036993503570557,0.37036994099617004) translate(-1,-5) translate(2,5) translate(1.8399999141693115,5) scale(0.7795535922050476,0.6211180090904236) translate(-1.8399999141693115,-5) translate(2.3603250980377197,8.050000190734863) scale(0.7260516285896301,0.9399999976158142) translate(-2.3603250980377197,-8.050000190734863) translate(1.4841090440750122,0) scale(0.9954921007156372,0.9290781021118164) translate(-1.4841090440750122,0) " id="CorelCorpID_0Corel-Layer"/>
   <g stroke="null" id="_2786615971568">
    <path stroke="null" id="svg_1" d="m46.580576,73.60019c-0.563445,-5.966874 0.563445,-11.391305 3.380668,-15.188407c4.507558,-4.881988 7.888226,-5.424431 11.832339,-7.594204c0,-2.169772 0,-5.424431 -1.126889,-7.05176c-0.563445,-2.169772 -2.253779,-4.339545 -3.380668,-5.424431c-3.380668,-2.169772 -9.015115,-3.254659 -14.086118,-3.254659c-1.690334,3.797102 -7.888226,23.867497 -10.142005,25.494826c-2.817224,-0.542443 -2.817224,-2.712216 -3.944113,-5.424431c-0.563445,-2.169772 -1.690334,-4.339545 -2.253779,-7.05176c-1.126889,-2.169772 -3.944113,-11.391305 -5.634447,-13.018635c-7.324781,-0.542443 -14.086118,2.712216 -16.903341,8.136647c-1.690334,4.339545 -1.126889,16.815736 -1.126889,22.782611c0,3.254659 0.563445,6.509317 4.507558,7.594204l38.877684,0z" class="fil0"/>
    <path stroke="null" id="svg_2" d="m35.311682,0.37037l-5.634447,0c-3.380668,1.627329 -6.197892,1.627329 -9.015115,5.424431c-1.690334,3.254659 -3.380668,5.966874 -2.817224,10.306419c1.690334,17.35818 28.172235,17.35818 29.299124,0c1.126889,-11.391305 -9.015115,-14.103521 -11.832339,-15.73085z" class="fil0"/>
    <path stroke="null" id="svg_3" d="m31.931014,51.902466c1.126889,-0.542443 1.126889,0.542443 2.253779,-3.797102c1.126889,-2.169772 0.563445,-3.254659 0.563445,-5.424431c-1.126889,-7.05176 1.690334,-4.881988 1.126889,-9.221533c-1.126889,-0.542443 -5.071002,-1.084886 -6.761336,0c-1.690334,1.627329 1.690334,3.797102 1.690334,5.424431c0.563445,1.627329 -0.563445,4.881988 -0.563445,6.509317c0,2.169772 1.126889,4.339545 1.690334,6.509317z" class="fil0"/>
    <path stroke="null" id="svg_4" d="m67.42803,54.614681c9.57856,0 17.466786,7.05176 17.466786,16.273293c0,9.221533 -7.888226,16.815736 -17.466786,16.815736c-9.015115,0 -16.903341,-7.594204 -16.903341,-16.815736c0,-9.221533 7.888226,-16.273293 16.903341,-16.273293zm-2.253779,17.35818c1.690334,-2.169772 9.015115,-9.763976 11.832339,-9.221533c6.197892,1.627329 -4.507558,10.306419 -6.197892,11.391305c-6.197892,5.966874 -5.071002,6.509317 -11.268894,0.542443c-0.563445,-0.542443 -5.634447,-4.881988 -1.126889,-6.509317c3.380668,-0.542443 4.507558,2.712216 6.761336,3.797102z" class="fil0"/>
   </g>
   <path id="svg_8" d="m53.444445,66.01965" opacity="0.5" stroke-opacity="null" stroke-width="NaN" stroke="null" fill="#B8874D"/>
   <path id="svg_9" d="m54.925924,48.982633" opacity="0.5" stroke-opacity="null" stroke-width="NaN" stroke="null" fill="#B8874D"/>
  </g>
  <path d="m87,124.953125c0,1 1,1 2,1c1,0 2.292892,-0.707108 3,0c0.707108,0.707108 0.693436,1.458801 2,2c0.923882,0.38269 2,1 3,1c1,0 1.292892,1.292892 2,2c0.707108,0.707108 2.458801,0.693436 3,2c0.382683,0.923874 1.458801,0.693436 2,2c0.382683,0.923874 0.474266,1.149353 1,2c1.175568,1.902115 2.292892,2.292892 3,3c0.707108,0.707108 1.824432,0.097885 3,2c0.525734,0.850647 1,1 1,2l1,0l1,1" id="svg_6" fill-opacity="null" stroke-opacity="null" stroke-width="NaN" stroke="null" fill="none"/>
 </g>
</svg>