<svg width="88" height="87" xmlns="http://www.w3.org/2000/svg">
 <defs>
  <style type="text/css">
   <![CDATA[
    .fil0 {fill:#B0CB1F}
   ]]>
  </style>
 </defs>
 <g>
  <title>background</title>
  <rect fill="none" id="canvas_background" height="89" width="90" y="-1" x="-1"/>
 </g>
 <g>
  <title>Layer 1</title>
  <g stroke="null" id="Слой_x0020_1">
   <metadata stroke="null" transform="translate(-5.9574456214904785,3.829786539077759) translate(19,-3) translate(-1,-1) translate(0,0) scale(0.5896927714347839,0.5602836608886719) translate(0,0) translate(-1.6957982778549194,-1.784810185432434) scale(1.317647099494934,1.215189814567566) translate(1.6957982778549194,1.784810185432434) translate(-1.286989688873291,-1.4687501192092896) scale(0.7818877696990967,0.90625) translate(1.286989688873291,1.4687501192092896) " id="CorelCorpID_0Corel-Layer"/>
   <g stroke="null" id="_2786477359424">
    <path stroke="null" id="svg_1" d="m23.585667,36.234038l-11.543113,0c0,1.851064 1.215064,6.170212 1.822597,8.021276c0.607532,2.468085 2.430129,4.93617 3.645193,6.787233c1.822597,1.851064 3.037661,3.702127 5.46779,4.93617c0.607532,1.234042 4.252726,4.319149 5.46779,4.93617l0,4.93617l10.328048,0l0,-11.723403c-2.430129,-0.617021 -3.037661,-0.617021 -4.252726,-1.851064c-3.645193,-3.702127 -1.215064,-9.872339 4.252726,-10.489361l0,-5.553191l-9.112984,0c0,-1.851064 0.607532,-3.085106 0,-4.319149c-1.215064,-2.468085 -4.252726,-2.468085 -5.46779,0c-0.607532,0.617021 0,2.468085 -0.607532,4.319149z" class="fil0"/>
    <path stroke="null" id="svg_2" d="m50.317086,33.148932l0,3.085106c-1.822597,0 -6.075322,0 -8.505451,0c0,2.468085 0,5.553191 0,8.638297l-3.037661,0c-3.645193,0 -4.252726,4.93617 -0.607532,6.170212c0.607532,0 2.430129,0 3.645193,0c0,3.085106 0,9.872339 0,12.957446l0,1.851064l7.290387,0l0,-4.93617l5.46779,-4.93617c4.252726,-3.702127 6.682855,-6.170212 9.112984,-11.723403c0.607532,-1.851064 1.822597,-6.170212 1.822597,-8.021276c-3.037661,-0.617021 -6.075322,0 -9.112984,0c0,-2.468085 0.607532,-4.93617 -1.822597,-6.170212c-1.822597,-0.617021 -4.252726,0.617021 -4.252726,3.085106z" class="fil0"/>
    <path stroke="null" id="svg_3" d="m56.392408,3.531914l0,3.702127c-2.430129,0 -4.252726,-0.617021 -5.46779,1.851064c-1.215064,2.468085 0.607532,4.319149 3.037661,4.319149l2.430129,0l0,7.404255l6.075322,0c0,-5.553191 6.682855,-7.404255 9.720516,-4.319149c1.215064,1.234042 1.822597,2.468085 1.822597,4.319149c0.607532,0 3.645193,0 4.252726,0c2.430129,0 1.822597,-1.234042 1.822597,-4.319149c0,-1.851064 0,-15.42553 0,-16.042552c-0.607532,-0.617021 -2.430129,-0.617021 -3.645193,-0.617021l-17.010903,0c-3.645193,0 -3.037661,0.617021 -3.037661,3.702127z" class="fil0"/>
    <path stroke="null" id="svg_4" d="m12.042554,33.148932c1.215064,0 3.037661,0 4.252726,0l4.252726,0c0.607532,0 0,0 0.607532,-0.617021c0,0 -0.607532,-1.851064 1.215064,-3.702127c2.430129,-2.468085 6.075322,-2.468085 8.505451,0c1.822597,1.851064 1.822597,2.468085 1.822597,4.319149l6.075322,0l0,-4.93617c-1.215064,0 -1.822597,0 -2.430129,0c-6.075322,-3.085106 -4.252726,-11.723403 2.430129,-11.723403l0,-7.404255c-7.897919,0 -13.973242,2.468085 -18.225967,6.787233c-3.645193,3.085106 -6.075322,7.404255 -7.290387,11.723403c-0.607532,1.234042 -1.215064,3.702127 -1.215064,5.553191z" class="fil0"/>
    <path stroke="null" id="svg_5" d="m25.408264,70.787226c0.607532,1.234042 1.215064,1.234042 2.430129,1.234042l22.478693,0c1.215064,0 1.822597,-0.617021 1.822597,-1.851064c-0.607532,-1.234042 -1.215064,-1.234042 -2.430129,-1.234042c-1.822597,0 -3.037661,0 -4.252726,0l-18.225967,0c-0.607532,0 -1.215064,0 -1.215064,0.617021c-0.607532,0 -0.607532,0.617021 -0.607532,1.234042z" class="fil0"/>
    <path stroke="null" id="svg_6" d="m38.773973,86.829778c3.645193,0 6.682855,-2.468085 7.290387,-5.553191l-14.580774,0c0.607532,3.085106 3.645193,5.553191 7.290387,5.553191z" class="fil0"/>
    <path stroke="null" id="svg_7" d="m28.445925,76.957439c0.607532,1.851064 3.645193,1.234042 4.860258,1.234042c1.822597,0 13.973242,0 14.580774,0c0.607532,-0.617021 1.215064,-1.234042 1.215064,-1.851064c0,-1.234042 -1.215064,-1.234042 -1.822597,-1.234042l-15.188306,0c-1.215064,0 -4.252726,-0.617021 -3.645193,1.851064z" class="fil0"/>
   </g>
  </g>
 </g>
</svg>