<svg width="50" height="50" xmlns="http://www.w3.org/2000/svg">
 <defs>
  <style type="text/css">
   <![CDATA[
    .fil0 {fill:#2B2A29}
   ]]>
  </style>
 </defs>
 <g>
  <title>background</title>
  <rect fill="none" id="canvas_background" height="52" width="52" y="-1" x="-1"/>
 </g>
 <g>
  <title>Layer 1</title>
  <g stroke="null" id="Слой_x0020_1">
   <metadata stroke="null" transform="translate(0.18055176734924316,0) translate(0,3.999998092651367) translate(0,1) translate(-0.11111116409301758,0) scale(0.47762027382850647,0.5060241222381592) translate(0.11111116409301758,0) translate(-0.23263469338417053,0) scale(0.5793409943580627,0.6309524178504944) translate(0.23263469338417053,0) translate(-0.40154945850372314,3.132075071334839) scale(0.724082350730896,0.7547169923782349) translate(0.40154945850372314,-3.132075071334839) " id="CorelCorpID_0Corel-Layer"/>
   <path stroke="null" id="svg_1" d="m5.100633,41.626509c0.200357,-0.240964 0.801429,-0.722892 1.001786,-0.963856l1.602858,-1.686747c0,0 0.200357,0 0.200357,0l10.618932,-10.843375c0.200357,-0.240964 0.801429,-0.722892 1.001786,-0.963856l4.608216,4.578314c0.200357,0.240964 0.601072,0.481928 0.801429,0.240964c0.400714,0 0.801429,0 1.001786,-0.240964l4.407859,-4.578314c0.200357,0.240964 2.003572,1.927711 2.404287,2.168675c0,0.240964 0.200357,0.481928 0.400714,0.481928l7.21286,7.228917c0.200357,0.240964 4.207501,4.33735 4.407859,4.578314l-39.670728,0zm28.250367,-17.3494c0,-0.240964 0,-0.240964 0.200357,-0.240964l0.801429,-0.963856c0.400714,-0.240964 0.601072,-0.722892 1.001786,-0.963856l1.602858,-1.686747c0.601072,-0.481928 3.005358,-2.891567 3.806787,-3.855422l1.202143,-1.204819c0,0 0,0 0.200357,-0.240964c0.200357,0 0.200357,-0.240964 0.400714,-0.481928c0.200357,0 0.200357,0 0.200357,-0.240964l4.207501,-4.096386c0,0 0,0 0.200357,0l0,29.15663c-0.200357,0 -0.400714,-0.240964 -0.601072,-0.240964c-0.400714,-0.722892 -1.602858,-1.686747 -2.203929,-2.409639l-6.611788,-6.506025c-0.200357,-0.240964 -0.200357,-0.240964 -0.200357,-0.240964l-0.801429,-0.722892c0,-0.240964 0,-0.240964 -0.200357,-0.240964l-3.406073,-3.373494c-0.200357,-0.240964 -0.400714,-0.481928 -0.601072,-0.722892l0.801429,-0.722892zm-30.454296,-13.975905c0.200357,0 0.200357,0 0.200357,0.240964l4.808573,4.819278c0.200357,0 0.200357,0 0.200357,0.240964l9.416789,9.397592c-0.200357,0.240964 -0.200357,0 -0.200357,0.240964l-1.001786,0.963856c0,0 -0.200357,0 -0.200357,0.240964c-1.4025,1.204819 -3.005358,2.891567 -4.207501,4.096386l-0.601072,0.722892c-0.200357,0 -0.200357,0 -0.200357,0.240964l-4.007144,3.855422c-0.801429,0.722892 -2.003572,2.168675 -2.805001,2.891567c-0.400714,0.240964 -1.202143,1.204819 -1.4025,1.204819l0,-29.15663zm18.032149,13.975905c0,-0.240964 -0.200357,-0.240964 -0.200357,-0.481928l-9.617146,-9.638555c0,0 -0.200357,0 -0.200357,-0.240964c-0.200357,0 -0.200357,-0.240964 -0.400714,-0.240964c-1.001786,-0.963856 -2.604644,-2.891567 -3.806787,-4.096386c-0.200357,0 -0.200357,-0.240964 -0.400714,-0.240964c-0.200357,-0.240964 -0.200357,-0.240964 -0.400714,-0.240964c0,-0.240964 -0.400714,-0.481928 -0.400714,-0.722892l39.069656,0c0,0.240964 -0.400714,0.481928 -0.601072,0.722892c0,0 0,0 -0.200357,0l-4.608216,4.819278c-0.200357,0.240964 -0.200357,0.240964 -0.200357,0.240964c-0.200357,0 -0.200357,0 -0.200357,0.240964l-1.001786,0.963856c-0.400714,0.481928 -1.202143,1.204819 -1.803215,1.686747c0,0.240964 -0.200357,0.240964 -0.200357,0.481928l-7.813931,7.710844c-0.200357,0.240964 -0.400714,0.481928 -0.601072,0.481928c0,0.240964 -0.400714,0.481928 -0.601072,0.722892c0,0.240964 -0.400714,0.481928 -0.601072,0.481928c-0.200357,0.240964 -0.400714,0.481928 -0.601072,0.722892l-0.601072,0.722892l-4.007144,-4.096386zm-17.030363,-19.277111c-1.602858,0.240964 -2.604644,1.204819 -3.205715,2.409639c-0.801429,1.686747 -0.601072,3.614458 -0.601072,5.542169l0,25.060244c0,2.168675 0,3.614458 1.001786,5.060242c1.001786,1.445783 2.003572,1.927711 3.60643,1.927711l38.869299,0c0.801429,0 1.803215,0 2.604644,0c1.4025,-0.240964 2.604644,-1.445783 3.205715,-2.409639c0.801429,-1.686747 0.400714,-3.614458 0.400714,-5.542169c0.200357,-4.33735 0.200357,-8.433736 0,-12.530122c0,-4.096386 0,-8.433736 0,-12.530122c0,-2.168675 0.200357,-3.614458 -0.801429,-5.060242c-1.001786,-1.445783 -2.203929,-1.927711 -3.60643,-1.927711l-38.869299,0c-0.801429,0 -1.803215,0 -2.604644,0z" class="fil0"/>
  </g>
 </g>
</svg>