<svg width="50" height="50" xmlns="http://www.w3.org/2000/svg">
 <defs>
  <style type="text/css">
   <![CDATA[
    .fil0 {fill:#2B2A29}
   ]]>
  </style>
 </defs>
 <g>
  <title>background</title>
  <rect x="-1" y="-1" width="52" height="52" id="canvas_background" fill="none"/>
 </g>
 <g>
  <title>Layer 1</title>
  <g id="Слой_x0020_1" stroke="null">
   <metadata transform="translate(-0.4310344457626343,0) translate(0,-2.431034564971924) translate(0.21551720798015594,0.21551720798015594) translate(0.21551720798015594,0.21551720798015594) translate(3.5762786865234375e-7,0) translate(0,9.5367431640625e-7) " id="CorelCorpID_0Corel-Layer"/>
   <path class="fil0" d="m48.390225,39.878461c0,-0.407192 0,-0.814383 0,-1.221575c-0.449637,-0.407192 -0.449637,-0.814383 -0.899274,-0.814383c0,-0.407192 0,-0.407192 0,-0.407192c0,0 0,0 -0.449637,0c0,0 0,-0.407192 0,-0.407192c-0.449637,-0.407192 -0.899274,-0.407192 -0.899274,-0.814383c0,0 0,0 0,0c-0.449637,-0.407192 -0.899274,-0.407192 -0.899274,-0.814383l-1.348911,-0.814383c0,0 0,0 0,0c-0.899274,-0.814383 -2.248184,-1.628766 -3.147458,-2.035958c0,-0.407192 0,-0.407192 0,-0.407192c-2.697821,-1.221575 -4.946005,-0.814383 -7.19419,0.407192l-0.899274,0.814383c-0.899274,0.814383 -1.798547,2.443149 -4.046732,2.850341c-1.798547,0 -3.597095,-0.814383 -4.946005,-2.035958l-1.348911,-0.814383c-0.899274,-0.814383 -2.248184,-2.035958 -3.147458,-2.850341l-2.697821,-3.257532c0,0 0,0 -0.449637,-0.407192l-0.449637,-0.814383c-0.449637,-0.407192 -0.899274,-0.814383 -0.899274,-1.628766l-0.449637,0c0,-0.407192 0,-0.407192 0,-0.407192c-1.348911,-2.035958 -1.798547,-3.664724 0,-5.700681l0.449637,0c0,-0.407192 0.449637,-0.407192 0.449637,-0.407192l0.899274,-0.814383c0,0 0.449637,0 0.449637,0c0,-0.407192 0.449637,-0.407192 0.449637,-0.407192c0.449637,-0.407192 0.899274,-0.814383 1.348911,-0.814383c0.449637,-0.407192 0.899274,-0.814383 0.899274,-1.221575c1.348911,-2.443149 -0.449637,-6.107873 -1.798547,-8.143831c-0.449637,0 -0.449637,-0.407192 -0.449637,-0.407192l-0.449637,-0.814383c-0.449637,0 -0.449637,0 -0.449637,0c0,-0.407192 0,-0.407192 0,-0.407192l-1.348911,-1.628766c-0.449637,0 -0.449637,0 -0.449637,-0.407192c-0.449637,-0.407192 -0.449637,-0.407192 -0.899274,-0.814383c-1.798547,-0.814383 -4.046732,0 -5.395642,0.814383c-0.449637,0.407192 -1.348911,0.814383 -1.798547,1.221575c0,0.407192 -0.449637,0.814383 -0.899274,1.221575l-1.798547,2.035958c0,0 0,0 0,0.407192c-0.899274,1.221575 -1.798547,2.850341 -2.248184,4.479107c-0.899274,3.664724 -0.449637,7.329448 0.899274,10.58698c0.449637,0.814383 0.899274,1.628766 1.348911,2.443149l1.348911,2.443149c0,0.407192 0,0.407192 0,0.814383c0.449637,0 0.449637,0.407192 0.899274,0.814383l3.597095,4.479107c0.449637,0.407192 0,0 0.449637,0l1.798547,2.035958c0,0 0,0.407192 0.449637,0.407192c0,0.407192 0,0 0,0.407192c0,0 0,0 0.449637,0c0,0.407192 0.449637,0.814383 0.449637,0.814383l1.348911,1.221575c0.449637,0.407192 0.449637,0.407192 0.449637,0.407192c0,0.407192 0,0.407192 0.449637,0.407192c0,0 0,0 0,0c0.449637,0.407192 0.899274,1.221575 1.348911,1.628766l3.147458,2.035958c0.449637,0.407192 0.899274,0.407192 1.348911,0.814383c0,0 0.449637,0.407192 0.899274,0.407192l1.348911,0.814383c0,0 0,0 0,0c2.697821,1.221575 6.294916,2.850341 9.442374,2.850341c1.348911,0.407192 2.697821,0.407192 4.046732,0c0,0 0,0 0.449637,0l0.899274,-0.407192c0.899274,0 1.798547,-0.407192 2.697821,-0.814383c0.449637,0 0.899274,0 0.899274,-0.407192l2.697821,-1.628766c0,0 0,0 0,0l1.798547,-1.221575c0,0 0,0 0.449637,-0.407192l1.348911,-1.221575c0.449637,-0.814383 0.449637,-1.221575 0.449637,-2.035958l-0.000004,0.000002z" id="svg_1" stroke="null"/>
   <path class="fil0" d="m25.009108,10.15348c0.449637,0 3.147458,0.407192 4.496369,0.407192l0.899274,0.407192c1.348911,0.407192 3.147458,0.814383 4.496369,1.221575c0,0.407192 0.449637,0.407192 0.899274,0.407192l1.348911,1.221575c0.899274,0.407192 2.697821,2.035958 3.147458,2.443149l0.899274,0.814383c0.449637,0.814383 1.348911,2.443149 1.798547,3.257532c0.899274,1.628766 1.798547,4.886298 1.798547,6.922256l4.496369,0l0,-2.443149c-0.449637,-1.221575 -0.899274,-3.257532 -1.348911,-4.479107c-0.449637,-1.628766 -0.899274,-2.035958 -1.798547,-3.664724l-2.697821,-3.664724c-0.449637,0 -1.348911,-1.221575 -1.798547,-1.628766l-0.899274,-0.407192c-0.899274,-0.814383 -3.147458,-2.035958 -3.597095,-2.443149c-3.147458,-1.221575 -6.294916,-2.035958 -9.442374,-2.443149c-0.449637,0 -2.248184,-0.407192 -2.697821,0l0,4.071915l-0.000002,-0.000001z" id="svg_2" stroke="null"/>
   <path class="fil0" d="m25.009108,18.704502c1.798547,0 3.147458,0.407192 4.496369,0.814383c0.899274,0.407192 3.147458,1.628766 3.597095,2.443149c0,0 0,0 0,0c1.348911,1.628766 2.248184,3.664724 2.248184,5.700681l4.496369,0c0,-2.850341 -0.449637,-4.071915 -1.798547,-6.515064c-0.449637,-1.221575 -0.899274,-1.221575 -1.348911,-2.035958c-0.449637,0 -1.348911,-0.814383 -1.348911,-1.221575l-1.348911,-0.814383c-0.899274,-0.407192 -1.798547,-1.221575 -2.697821,-1.221575c-1.348911,-0.814383 -4.496369,-1.628766 -6.294916,-1.221575l0,4.071915l0,0.000002z" id="svg_3" stroke="null"/>
  </g>
 </g>
</svg>