<svg width="88" height="86" xmlns="http://www.w3.org/2000/svg">
 <defs>
  <style type="text/css">
   <![CDATA[
    .fil0 {fill:#B0CB1F}
   ]]>
  </style>
 </defs>
 <g>
  <title>background</title>
  <rect x="-1" y="-1" width="90" height="88" id="canvas_background" fill="none"/>
 </g>
 <g>
  <title>Layer 1</title>
  <g stroke="null" id="Слой_x0020_1">
   <metadata stroke="null" transform="translate(0,-0.21834659576416016) translate(0.2820035219192505,0) translate(-0.5263158082962036,-0.5263158082962036) translate(0.4736841917037964,1.3182687759399414) scale(1,0.9754932522773743) translate(-0.4736841917037964,-1.3182687759399414) " id="CorelCorpID_0Corel-Layer"/>
   <g stroke="null" id="_2786814471728">
    <path stroke="null" class="fil0" d="m81.124238,73.874085c0,-2.907955 0,-5.81591 0,-8.723856c0,-5.81591 0,-11.631821 0,-17.447721l0,-26.171587c0,-2.423291 -0.49005,-1.938637 1.96021,-1.938637c1.47015,0 2.94031,0 3.43036,-0.969318c1.96021,-1.938637 -0.49005,-4.361928 -1.96021,-5.815901l-7.35078,-9.693184c-0.49005,-0.484654 -1.47015,-1.453973 -2.45026,-1.938637c-2.94031,-0.484654 -4.41047,1.453982 -5.39057,3.392609c-0.98011,0.484664 -1.47016,1.453982 -1.96021,2.423301l-5.88063,7.269883c-0.49005,0.484654 -1.47015,1.453973 -1.47015,2.907955c0,0.969318 0.9801,1.938637 1.96021,2.423291c2.45026,0.484664 3.92041,-0.484654 4.41046,0.484664l0,57.674409c0,2.423291 -0.49005,5.331246 2.94032,6.785219c1.47015,0.484664 5.39057,0.484664 6.86073,0c5.88062,0 4.90052,-6.785219 4.90052,-10.662492z" id="svg_1"/>
    <path stroke="null" class="fil0" d="m44.370328,80.659313c0.49005,2.423291 2.45026,3.877264 4.90052,3.877264c1.47016,0.484664 2.94031,0 4.41047,0c1.47015,0 2.45026,0 3.43036,-0.969309c2.45026,-1.453982 1.96021,-3.392619 1.96021,-6.785229c0,-3.392609 0,-43.134644 0,-44.103962c-0.49005,-2.423291 -1.96021,-3.877274 -4.90052,-3.877274c-1.47015,0 -2.94031,0 -4.41047,0c-1.47015,0 -2.45026,0 -3.43036,0.969318c-2.45026,1.453973 -1.96021,3.392609 -1.96021,6.785229l0,26.656241c0,2.907945 0,5.815901 0,8.723856c0,1.453982 0,8.239201 0,8.723865z" id="svg_2"/>
    <path stroke="null" class="fil0" d="m22.808038,80.174649c0,1.938637 1.47015,3.877274 2.94031,4.361928c1.47015,0.484664 5.88062,0.484664 7.35078,0c1.96021,0 3.43037,-1.453973 4.41047,-2.907945c0.49005,-1.453982 0,-4.846592 0,-6.785229l0,-21.809649c0,-2.423301 0,-5.331246 0,-7.269883c0,-1.938637 -1.47016,-3.392619 -2.94031,-3.877274c-1.47016,-0.484664 -5.39058,-0.484664 -7.35078,-0.484664c-1.96021,0 -3.43037,1.938637 -3.92042,2.907955c-0.98011,1.453982 -0.49005,5.331246 -0.49005,7.269883l0,28.594878z" id="svg_3"/>
    <path stroke="null" class="fil0" d="m15.457248,80.174649c0.49006,-0.969318 0,-15.02442 0,-17.447721c0,-3.392609 0.98011,-7.269883 -2.45026,-9.20852c-1.47015,-0.969318 -2.94031,-0.484654 -4.90052,-0.484654c-1.96021,0 -3.43036,-0.484664 -4.90052,0.484654c-0.9801,0.969318 -1.96021,1.938637 -2.45026,3.877274c0,1.453973 0,4.361928 0,5.81591c0,1.938637 0,16.478403 0,17.447721c0.49005,1.453973 1.47016,2.423291 2.45026,3.392609c1.47016,0.969318 2.94031,0.484654 4.90052,0.484654c2.45026,0 3.43037,0.484664 5.39057,-0.484654c0.98011,-0.969318 1.47016,-1.938637 1.96021,-3.877274z" id="svg_4"/>
   </g>
  </g>
 </g>
</svg>