<svg width="88" height="88" xmlns="http://www.w3.org/2000/svg">
 <defs>
  <style type="text/css">
   <![CDATA[
    .fil0 {fill:#26A4E3}
    .fil1 {fill:#FEFEFE}
   ]]>
  </style>
 </defs>
 <g>
  <title>background</title>
  <rect fill="none" id="canvas_background" height="90" width="90" y="-1" x="-1"/>
 </g>
 <g>
  <title>Layer 1</title>
  <g stroke="null" id="Слой_x0020_1">
   <metadata stroke="null" transform="translate(0,1) translate(1,0) translate(0,0) scale(0.5809524059295654) translate(0,0) translate(0,0) scale(1.4098360538482666) translate(0,0) " id="CorelCorpID_0Corel-Layer"/>
   <g stroke="null" id="_2786033081088">
    <path stroke="null" id="svg_1" d="m51.780954,36.219049c-0.819048,0 -1.638095,0.819048 -2.457143,1.638095l-5.733334,4.095238c-3.276191,1.638095 -5.733334,3.276191 -9.009524,5.733334c-4.095238,2.457143 -4.914286,3.276191 -10.647619,1.638095c-1.638095,-0.819048 -3.276191,-0.819048 -4.914286,-1.638095c-0.819048,-0.819048 -1.638095,-0.819048 -1.638095,-2.457143c0,-0.819048 4.914286,-2.457143 6.552381,-3.276191c9.828572,-4.914286 19.657144,-9.009524 30.304763,-13.104762c1.638095,-0.819048 3.276191,-0.819048 4.914286,-1.638095c2.457143,-0.819048 4.095238,-0.819048 4.914286,1.638095c0,3.276191 -4.095238,27.028572 -4.914286,31.123811c-0.819048,1.638095 -0.819048,4.095238 -2.457143,4.914286c-1.638095,1.638095 -4.095238,0 -4.914286,-0.819048l-4.095238,-3.276191c-0.819048,0 -1.638095,-0.819048 -2.457143,-0.819048c-0.819048,-0.819048 -1.638095,-1.638095 -1.638095,-1.638095c-0.819048,-0.819048 -1.638095,-0.819048 -2.457143,-1.638095c-0.819048,-0.819048 -3.276191,-1.638095 -4.095238,-3.276191c0,-0.819048 0.819048,-1.638095 1.638095,-2.457143l9.009524,-9.009524c0,0 0.819048,0 0.819048,-0.819048l2.457143,-2.457143c0.819048,-0.819048 1.638095,-0.819048 0.819048,-2.457143zm-50.780954,4.914286l0,4.914286c0,0 0,3.276191 0.819048,4.095238c0,1.638095 0,3.276191 0.819048,4.095238c1.638095,8.190476 5.733334,14.742858 10.647619,19.657144c5.733334,6.552381 14.742858,10.647619 23.752382,12.285715c0.819048,0 4.095238,0 4.095238,0.819048l5.733334,0c0,-0.819048 3.276191,-0.819048 4.095238,-0.819048c1.638095,0 3.276191,-0.819048 4.095238,-0.819048c2.457143,-0.819048 4.914286,-1.638095 7.371429,-3.276191c2.457143,-0.819048 4.914286,-2.457143 6.552381,-3.276191c1.638095,-1.638095 3.276191,-2.457143 4.914286,-4.914286c3.276191,-3.276191 6.552381,-6.552381 8.190476,-11.466667c4.914286,-9.009524 4.095238,-14.742858 4.914286,-15.561905l0,-5.733334c-0.819048,0 -0.819048,-3.276191 -0.819048,-4.095238c-0.819048,-6.552381 -4.095238,-13.104762 -7.371429,-18.019048c0,-0.819048 -0.819048,-0.819048 -0.819048,-1.638095c-3.276191,-3.276191 -5.733334,-5.733334 -9.009524,-8.190476c-2.457143,-1.638095 -4.095238,-3.276191 -6.552381,-4.095238c-3.276191,-1.638095 -7.371429,-3.276191 -11.466667,-3.276191c-0.819048,0 -4.095238,-0.819048 -4.914286,-0.819048l-4.914286,0c-0.819048,0.819048 -11.466667,0 -22.114286,8.190476c-2.457143,1.638095 -4.095238,2.457143 -5.733334,4.095238c-5.733334,6.552381 -10.647619,14.742858 -11.466667,23.752382c0,0.819048 -0.819048,4.095238 -0.819048,4.095238z" class="fil0"/>
    <path stroke="null" id="svg_2" d="m51.780954,36.219049c0.819048,1.638095 0,1.638095 -0.819048,2.457143l-2.457143,2.457143c0,0.819048 -0.819048,0.819048 -0.819048,0.819048l-9.009524,9.009524c-0.819048,0.819048 -1.638095,1.638095 -1.638095,2.457143c0.819048,1.638095 3.276191,2.457143 4.095238,3.276191c0.819048,0.819048 1.638095,0.819048 2.457143,1.638095c0,0 0.819048,0.819048 1.638095,1.638095c0.819048,0 1.638095,0.819048 2.457143,0.819048l4.095238,3.276191c0.819048,0.819048 3.276191,2.457143 4.914286,0.819048c1.638095,-0.819048 1.638095,-3.276191 2.457143,-4.914286c0.819048,-4.095238 4.914286,-27.84762 4.914286,-31.123811c-0.819048,-2.457143 -2.457143,-2.457143 -4.914286,-1.638095c-1.638095,0.819048 -3.276191,0.819048 -4.914286,1.638095c-10.647619,4.095238 -20.476191,8.190476 -30.304763,13.104762c-1.638095,0.819048 -6.552381,2.457143 -6.552381,3.276191c0,1.638095 0.819048,1.638095 1.638095,2.457143c1.638095,0.819048 3.276191,0.819048 4.914286,1.638095c5.733334,1.638095 6.552381,0.819048 10.647619,-1.638095c3.276191,-2.457143 5.733334,-4.095238 9.009524,-5.733334l5.733334,-4.095238c0.819048,-0.819048 1.638095,-1.638095 2.457143,-1.638095z" class="fil1"/>
   </g>
  </g>
 </g>
</svg>