<svg width="48" height="48" xmlns="http://www.w3.org/2000/svg">
 <defs>
  <style type="text/css">
   <![CDATA[
    .fil0 {fill:#26A4E3}
    .fil1 {fill:#FEFEFE}
   ]]>
  </style>
 </defs>
 <g>
  <title>background</title>
  <rect x="-1" y="-1" width="50" height="50" id="canvas_background" fill="none"/>
 </g>
 <g>
  <title>Layer 1</title>
  <g stroke="null" id="Слой_x0020_1">
   <metadata transform="translate(0,0.3448143005371094) translate(0.5172309875488281,0) translate(1,1) scale(0.5228551030158997,0.526864767074585) translate(-1,-1) " stroke="null" id="CorelCorpID_0Corel-Layer"/>
   <g stroke="null" id="_2786033081088">
    <path stroke="null" class="fil0" d="m28.06831,19.900491c-0.428239,0 -0.856484,0.431529 -1.284728,0.863052l-2.997701,2.157638c-1.712973,0.863057 -2.997706,1.726109 -4.710679,3.020695c-2.141217,1.29458 -2.569456,1.726109 -5.567162,0.863052c-0.856484,-0.431529 -1.712973,-0.431529 -2.569456,-0.863052c-0.428244,-0.431529 -0.856489,-0.431529 -0.856489,-1.294586c0,-0.431529 2.569462,-1.29458 3.425945,-1.726109c5.138923,-2.589161 10.277841,-4.746799 15.845004,-6.904436c0.856484,-0.431529 1.712973,-0.431529 2.569456,-0.863057c1.284733,-0.431523 2.141217,-0.431523 2.569462,0.863057c0,1.726109 -2.141217,14.240401 -2.569462,16.398039c-0.428239,0.863057 -0.428239,2.157638 -1.284728,2.589166c-0.856484,0.863052 -2.141217,0 -2.569462,-0.431529l-2.141212,-1.726109c-0.428244,0 -0.856489,-0.431529 -1.284733,-0.431529c-0.428239,-0.431529 -0.856484,-0.863052 -0.856484,-0.863052c-0.428244,-0.431529 -0.856489,-0.431529 -1.284728,-0.863057c-0.428244,-0.431529 -1.712978,-0.863052 -2.141217,-1.726109c0,-0.431529 0.428244,-0.863057 0.856484,-1.29458l4.710679,-4.746804c0,0 0.428239,0 0.428239,-0.431529l1.284733,-1.29458c0.428244,-0.431529 0.856484,-0.431529 0.428244,-1.29458l-0.000005,0zm-26.551079,2.589161l0,2.589166c0,0 0,1.726109 0.428244,2.157638c0,0.863052 0,1.726109 0.428244,2.157638c0.856484,4.31527 2.997701,7.767488 5.567157,10.356654c2.997706,3.452218 7.70838,5.609856 12.419058,6.472913c0.428244,0 2.141217,0 2.141217,0.431523l2.997701,0c0,-0.431523 1.712973,-0.431523 2.141217,-0.431523c0.856484,0 1.712973,-0.431529 2.141217,-0.431529c1.284728,-0.431529 2.569456,-0.863057 3.854185,-1.726109c1.284733,-0.431529 2.569462,-1.294586 3.425951,-1.726109c0.856484,-0.863057 1.712973,-1.294586 2.569456,-2.589166c1.712973,-1.726109 3.425945,-3.452218 4.282434,-6.041384c2.569456,-4.746799 2.141217,-7.767488 2.569456,-8.199017l0,-3.020695c-0.428239,0 -0.428239,-1.726109 -0.428239,-2.157632c-0.428244,-3.452218 -2.141217,-6.904442 -3.85419,-9.493603c0,-0.431529 -0.428244,-0.431529 -0.428244,-0.863057c-1.712973,-1.726109 -2.997706,-3.02069 -4.710679,-4.31527c-1.284728,-0.863057 -2.141212,-1.726109 -3.425945,-2.157638c-1.712973,-0.863057 -3.85419,-1.726109 -5.995402,-1.726109c-0.428244,0 -2.141217,-0.431529 -2.569462,-0.431529l-2.569462,0c-0.428239,0.431529 -5.995402,0 -11.562564,4.315275c-1.284728,0.863052 -2.141217,1.29458 -2.997706,2.157632c-2.997701,3.452223 -5.567157,7.767493 -5.995402,12.514297c0,0.431523 -0.428244,2.157632 -0.428244,2.157632z" id="svg_1"/>
    <path stroke="null" class="fil1" d="m28.06831,19.900491c0.428244,0.863052 0,0.863052 -0.428239,1.29458l-1.284733,1.294586c0,0.431523 -0.428244,0.431523 -0.428244,0.431523l-4.710674,4.746804c-0.428244,0.431529 -0.856484,0.863052 -0.856484,1.29458c0.428239,0.863057 1.712973,1.29458 2.141212,1.726109c0.428244,0.431529 0.856489,0.431529 1.284733,0.863057c0,0 0.428244,0.431523 0.856484,0.863052c0.428244,0 0.856489,0.431529 1.284733,0.431529l2.141212,1.726109c0.428244,0.431529 1.712973,1.29458 2.569462,0.431529c0.856484,-0.431529 0.856484,-1.726109 1.284728,-2.589166c0.428244,-2.157638 2.569462,-14.67193 2.569462,-16.398039c-0.428244,-1.29458 -1.284728,-1.29458 -2.569462,-0.863052c-0.856484,0.431523 -1.712973,0.431523 -2.569456,0.863052c-5.567162,2.157638 -10.70608,4.315275 -15.845004,6.904436c-0.856484,0.431529 -3.425945,1.294586 -3.425945,1.726109c0,0.863057 0.428244,0.863057 0.856489,1.294586c0.856484,0.431523 1.712973,0.431523 2.569456,0.863052c2.997706,0.863057 3.425945,0.431529 5.567162,-0.863052c1.712973,-1.294586 2.997706,-2.157638 4.710679,-3.020695l2.997701,-2.157638c0.428244,-0.431523 0.856489,-0.863052 1.284728,-0.863052z" id="svg_2"/>
   </g>
  </g>
 </g>
</svg>