<svg width="88" height="88" xmlns="http://www.w3.org/2000/svg">
 <defs>
  <style type="text/css">
   <![CDATA[
    .fil0 {fill:#31D850}
    .fil1 {fill:#FEFFFE}
   ]]>
  </style>
 </defs>
 <g>
  <title>background</title>
  <rect fill="none" id="canvas_background" height="90" width="90" y="-1" x="-1"/>
 </g>
 <g>
  <title>Layer 1</title>
  <g stroke="null" id="Слой_x0020_1">
   <metadata stroke="null" transform="translate(0.6708564758300781,0) translate(0,0.39034271240234375) translate(1.2194969654083252,0.4877987802028656) translate(0,-0.2438993901014328) translate(-2,0) translate(-2.1165504455566406,-0.11655044555664062) scale(0.6044344902038574,0.59544438123703) translate(2.1165504455566406,0.11655044555664062) translate(-3.501706838607788,-0.6053410768508911) scale(1.3156068325042725,1.313007116317749) translate(3.501706838607788,0.6053410768508911) " id="CorelCorpID_0Corel-Layer"/>
   <g stroke="null" id="_2786260401232">
    <path stroke="null" id="svg_1" d="m18.95124,69.409211c0,-1.563645 2.385594,-8.60005 2.385594,-10.945518c0.795198,-0.781823 0.795198,-1.563645 0.795198,-2.345468c-0.795198,-0.781823 -0.795198,-1.563645 -0.795198,-2.345468c-4.771189,-9.381873 -2.385594,-18.763745 3.180793,-25.800149c8.74718,-10.163695 26.241539,-12.509163 37.374313,-1.563645c3.975991,3.909114 7.951981,10.163695 7.951981,18.763745c-0.795198,5.472759 -2.385594,10.945518 -6.361585,14.854631c-6.361585,7.818227 -18.289557,10.945518 -28.627133,7.036404c-3.180793,-1.563645 -2.385594,-1.563645 -5.566387,-0.781823c-1.590396,0.781823 -3.180793,0.781823 -5.566387,1.563645c-1.590396,0.781823 -3.180793,0.781823 -4.771189,1.563645zm-19.084755,-21.891036c1.590396,22.672859 22.265548,41.436604 47.711889,39.872958c23.060746,-1.563645 42.145502,-21.109213 40.555105,-46.12754c-1.590396,-23.454681 -21.47035,-42.218426 -46.916691,-40.654781c-23.855944,1.563645 -42.9407,21.891036 -41.350304,46.909363z" class="fil0"/>
    <path stroke="null" id="svg_2" d="m34.855203,31.881721c3.180793,-0.781823 3.180793,0.781823 3.975991,3.127291c0.795198,1.563645 1.590396,3.127291 0.795198,4.690936c-2.385594,1.563645 -2.385594,2.345468 -0.795198,4.690936c1.590396,1.563645 2.385594,2.345468 3.180793,3.127291c0.795198,0.781823 3.975991,2.345468 4.771189,3.127291c1.590396,0 3.180793,-3.127291 3.975991,-3.127291c0.795198,0 3.975991,1.563645 4.771189,2.345468c0.795198,0 1.590396,0 1.590396,1.563645c0,0.781823 0,2.345468 -0.795198,2.345468c-0.795198,1.563645 -2.385594,2.345468 -4.771189,3.127291c-1.590396,0 -3.975991,-0.781823 -5.566387,-1.563645c-1.590396,-0.781823 -3.180793,-1.563645 -4.771189,-2.345468c-3.180793,-2.345468 -7.951981,-7.036404 -9.542378,-11.727341c-1.590396,-3.909114 0,-8.60005 3.180793,-9.381873zm-10.337576,31.272908l7.156783,-1.563645c0.795198,0 0.795198,-0.781823 1.590396,0c2.385594,1.563645 5.566387,2.345468 8.74718,3.127291c6.361585,0.781823 11.132774,-1.563645 15.903963,-5.472759c0.795198,0 0.795198,-0.781823 1.590396,-1.563645c0.795198,-0.781823 2.385594,-3.127291 3.180793,-4.690936c1.590396,-2.345468 2.385594,-5.472759 2.385594,-8.60005c0.795198,-6.254582 -2.385594,-11.727341 -6.361585,-14.854631c-8.74718,-8.60005 -23.060746,-7.818227 -30.21753,0.781823c-5.566387,7.036404 -7.156783,16.418277 -2.385594,24.236504c0.795198,1.563645 0.795198,1.563645 0,3.909114c-0.795198,1.563645 -0.795198,3.127291 -1.590396,4.690936z" class="fil0"/>
    <path stroke="null" id="svg_3" d="m24.517627,63.154629c0.795198,-1.563645 0.795198,-3.127291 1.590396,-4.690936c0.795198,-2.345468 0.795198,-2.345468 0,-3.909114c-4.771189,-7.818227 -3.180793,-17.2001 2.385594,-24.236504c7.156783,-8.60005 21.47035,-9.381873 30.21753,-0.781823c3.975991,3.127291 7.156783,8.60005 6.361585,14.854631c0,3.127291 -0.795198,6.254582 -2.385594,8.60005c-0.795198,1.563645 -2.385594,3.909114 -3.180793,4.690936c-0.795198,0.781823 -0.795198,1.563645 -1.590396,1.563645c-4.771189,3.909114 -9.542378,6.254582 -15.903963,5.472759c-3.180793,-0.781823 -6.361585,-1.563645 -8.74718,-3.127291c-0.795198,-0.781823 -0.795198,0 -1.590396,0l-7.156783,1.563645zm-5.566387,6.254582c1.590396,-0.781823 3.180793,-0.781823 4.771189,-1.563645c2.385594,-0.781823 3.975991,-0.781823 5.566387,-1.563645c3.180793,-0.781823 2.385594,-0.781823 5.566387,0.781823c10.337576,3.909114 22.265548,0.781823 28.627133,-7.036404c3.975991,-3.909114 5.566387,-9.381873 6.361585,-14.854631c0,-8.60005 -3.975991,-14.854631 -7.951981,-18.763745c-11.132774,-10.945518 -28.627133,-8.60005 -37.374313,1.563645c-5.566387,7.036404 -7.951981,16.418277 -3.180793,25.800149c0,0.781823 0,1.563645 0.795198,2.345468c0,0.781823 0,1.563645 -0.795198,2.345468c0,2.345468 -2.385594,9.381873 -2.385594,10.945518z" class="fil1"/>
    <path stroke="null" id="svg_4" d="m34.855203,31.881721c-3.180793,0.781823 -4.771189,5.472759 -3.180793,9.381873c1.590396,4.690936 6.361585,9.381873 9.542378,11.727341c1.590396,0.781823 3.180793,1.563645 4.771189,2.345468c1.590396,0.781823 3.975991,1.563645 5.566387,1.563645c2.385594,-0.781823 3.975991,-1.563645 4.771189,-3.127291c0.795198,0 0.795198,-1.563645 0.795198,-2.345468c0,-1.563645 -0.795198,-1.563645 -1.590396,-1.563645c-0.795198,-0.781823 -3.975991,-2.345468 -4.771189,-2.345468c-0.795198,0 -2.385594,3.127291 -3.975991,3.127291c-0.795198,-0.781823 -3.975991,-2.345468 -4.771189,-3.127291c-0.795198,-0.781823 -1.590396,-1.563645 -3.180793,-3.127291c-1.590396,-2.345468 -1.590396,-3.127291 0.795198,-4.690936c0.795198,-1.563645 0,-3.127291 -0.795198,-4.690936c-0.795198,-2.345468 -0.795198,-3.909114 -3.975991,-3.127291z" class="fil1"/>
   </g>
  </g>
 </g>
</svg>