<svg width="88" height="87" xmlns="http://www.w3.org/2000/svg">
 <defs>
  <style type="text/css">
   <![CDATA[
    .fil0 {fill:#B0CB1F}
   ]]>
  </style>
 </defs>
 <g>
  <title>background</title>
  <rect fill="none" id="canvas_background" height="89" width="90" y="-1" x="-1"/>
 </g>
 <g>
  <title>Layer 1</title>
  <g stroke="null" id="Слой_x0020_1">
   <metadata stroke="null" transform="translate(0.6060604453086853,8.484846115112305) translate(0.6594696044921875,2.139892578125) scale(0.8651008605957031,0.8401755094528198) translate(-0.6594696044921875,-2.139892578125) translate(0.7623040080070496,77.62932586669922) scale(1,0.9711776375770569) translate(-0.7623040080070496,-77.62932586669922) " id="CorelCorpID_0Corel-Layer"/>
   <g stroke="null" id="_2786475710992">
    <path stroke="null" id="svg_1" d="m12.116008,45.120905c0,1.623922 -0.239311,11.599445 0.239311,12.295412c0.717932,0.463978 4.786216,0.231989 5.98277,0.231989l25.845565,0c1.435865,0 5.504148,0.463978 5.98277,-0.463978c0.717932,-0.463978 0.239311,-25.982758 0.239311,-30.854525c0,-4.871767 -4.068283,-3.711823 -8.854499,-3.711823c-2.393108,0 -4.546905,0 -6.700702,0c0.957243,3.943811 1.435865,6.263701 0.239311,10.439501c-1.675176,5.799723 -6.461391,10.207512 -12.20485,12.063423c-3.11104,0.927956 -7.657945,1.159945 -10.768985,0z" class="fil0"/>
    <path stroke="null" id="svg_2" d="m58.30299,43.033004c0,-1.855911 0,-4.407789 0,-6.031712c0,-2.783867 0,-2.319889 4.068283,-2.319889c7.179324,0 5.025527,-0.927956 8.615188,3.711823c4.546905,6.263701 4.786216,5.567734 -7.179324,5.567734c-1.196554,0 -2.153797,0 -3.11104,0c-1.196554,0 -2.153797,0 -2.393108,-0.927956zm-4.786216,-11.599445l0,29.230603c-5.025527,0 -11.486918,0.231989 -16.512444,0c0.717932,1.159945 2.153797,1.623922 2.871729,5.335745l17.469687,0c0.717932,-2.551878 1.435865,-3.479834 2.871729,-5.103756c2.871729,-3.015856 8.615188,-2.783867 11.726229,0c1.435865,1.391933 2.393108,2.551878 2.871729,5.103756l7.657945,0c2.393108,0 2.153797,-0.463978 2.153797,-3.479834c0,-2.551878 -1.675176,-1.623922 -3.828973,-1.855911c0.239311,-3.711823 0,-7.887623 0,-11.599445c0,-5.335745 -0.478622,-5.567734 -2.871729,-9.047567c-1.435865,-2.319889 -3.11104,-4.639778 -4.786216,-6.959667c-3.350351,-4.639778 -7.179324,-3.943811 -12.922782,-3.943811c-3.11104,0 -6.700702,-0.695967 -6.700702,2.319889z" class="fil0"/>
    <path stroke="null" id="svg_3" d="m29.825006,30.041626c-1.196554,6.959667 -7.657945,11.135468 -14.358647,10.207512c-5.98277,-1.159945 -11.486918,-6.727678 -10.290364,-13.919335c0.957243,-6.031712 6.700702,-11.135468 14.358647,-10.207512c5.98277,0.927956 11.726229,6.727678 10.290364,13.919335zm-14.119336,-17.399168c-4.546905,0.695967 -7.657945,2.0879 -10.529675,5.335745c-2.632419,3.015856 -4.307594,6.959667 -3.828973,12.063423c0.957243,7.887623 8.615188,14.84729 17.948309,13.687346c8.136567,-0.927956 15.555201,-8.119612 14.358647,-17.399168c-1.435865,-9.047567 -10.290364,-15.079279 -17.948309,-13.687346z" class="fil0"/>
    <path stroke="null" id="svg_4" d="m65.243003,64.143995c1.914486,-0.463978 3.589662,0.695967 4.068283,2.319889c0.478622,2.0879 -0.957243,3.479834 -2.393108,3.943811c-4.068283,0.927956 -5.98277,-5.103756 -1.675176,-6.263701zm0.239311,-3.247845c-1.914486,0.231989 -3.350351,0.927956 -4.307594,2.0879c-4.068283,4.871767 0,11.367457 5.743459,10.67149c3.350351,-0.463978 6.22208,-3.479834 5.743459,-7.191656c-0.239311,-3.247845 -3.350351,-6.031712 -7.179324,-5.567734z" class="fil0"/>
    <path stroke="null" id="svg_5" d="m30.542939,64.143995c1.914486,-0.695967 3.589662,0.695967 3.828973,2.319889c0.717932,1.855911 -0.717932,3.479834 -2.153797,3.943811c-4.068283,0.927956 -6.22208,-4.871767 -1.675176,-6.263701zm0,-3.247845c-3.350351,0.463978 -6.22208,3.015856 -5.743459,7.191656c0.239311,3.247845 3.350351,6.031712 7.418634,5.567734c3.350351,-0.463978 6.22208,-3.479834 5.743459,-7.191656c-0.478622,-3.247845 -3.589662,-6.031712 -7.418634,-5.567734z" class="fil0"/>
    <path stroke="null" id="svg_6" d="m9.7229,65.767918c1.435865,0.463978 10.529675,0.231989 12.922782,0.231989c0.478622,-3.247845 1.914486,-3.943811 2.871729,-5.335745c-1.196554,0 -14.837269,-0.231989 -15.555201,0.231989c-0.957243,0.695967 -0.478622,3.943811 -0.239311,4.871767z" class="fil0"/>
    <path stroke="null" id="svg_7" d="m15.466359,20.298091c0,9.047567 -0.717932,8.351601 2.871729,9.511545c0.717932,0.231989 3.828973,0.927956 4.307594,0.695967c1.435865,-0.231989 1.675176,-2.0879 0.239311,-2.783867c-0.717932,-0.231989 -3.350351,-0.927956 -4.307594,-0.927956l0,-4.407789c0,-1.159945 0.478622,-3.015856 -0.717932,-3.711823c-1.196554,-0.695967 -2.393108,0.231989 -2.393108,1.623922z" class="fil0"/>
   </g>
  </g>
 </g>
</svg>