<svg width="30" height="30" xmlns="http://www.w3.org/2000/svg">
 <defs>
  <style type="text/css">
   <![CDATA[
    .fil0 {fill:#2B2A29}
   ]]>
  </style>
 </defs>
 <g>
  <title>background</title>
  <rect x="-1" y="-1" width="32" height="32" id="canvas_background" fill="none"/>
 </g>
 <g>
  <title>Layer 1</title>
  <g stroke="null" id="Слой_x0020_1">
   <metadata stroke="null" transform="translate(0,2.7155163288116455) translate(0.1293105185031891,0) translate(-0.21551723778247833,-5.387930870056152) translate(0.06944108009338379,4.999998092651367) scale(0.6326001882553101,0.6228448748588562) translate(-0.06944108009338379,-4.999998092651367) translate(-0.23091372847557068,-0.622840404510498) scale(0.952171266078949,0.9826989769935608) translate(0.23091372847557068,0.622840404510498) translate(-0.24251288175582886,-0.6338057518005371) scale(1,1.0088027715682983) translate(0.24251288175582886,0.6338057518005371) translate(-0.24251288175582886,-0.6282752156257629) scale(1,1.026178002357483) translate(0.24251288175582886,0.6282752156257629) " id="CorelCorpID_0Corel-Layer"/>
   <path stroke="null" class="fil0" d="m3.013741,25.5349c0.120684,-0.15268 0.482736,-0.458039 0.60342,-0.610719l0.965471,-1.068758c0,0 0.120684,0 0.120684,0l6.396247,-6.870587c0.120684,-0.15268 0.482736,-0.458039 0.60342,-0.610719l2.77573,2.900915c0.120684,0.15268 0.362052,0.30536 0.482736,0.15268c0.241368,0 0.482736,0 0.60342,-0.15268l2.655046,-2.900915c0.120684,0.15268 1.206839,1.221438 1.448207,1.374117c0,0.15268 0.120684,0.30536 0.241368,0.30536l4.344621,4.580392c0.120684,0.15268 2.534362,2.748235 2.655046,2.900915l-23.895414,0l-0.000001,0zm17.016431,-10.992939c0,-0.15268 0,-0.15268 0.120684,-0.15268l0.482736,-0.610719c0.241368,-0.15268 0.362052,-0.458039 0.60342,-0.610719l0.965471,-1.068758c0.362052,-0.30536 1.810259,-1.832157 2.292994,-2.442875l0.724103,-0.763398c0,0 0,0 0.120684,-0.15268c0.120684,0 0.120684,-0.15268 0.241368,-0.30536c0.120684,0 0.120684,0 0.120684,-0.15268l2.534362,-2.595555c0,0 0,0 0.120684,0l0,18.474245c-0.120684,0 -0.241368,-0.15268 -0.362052,-0.15268c-0.241368,-0.458039 -0.965471,-1.068758 -1.327523,-1.526797l-3.982569,-4.122352c-0.120684,-0.15268 -0.120684,-0.15268 -0.120684,-0.15268l-0.482736,-0.458039c0,-0.15268 0,-0.15268 -0.120684,-0.15268l-2.051627,-2.137516c-0.120684,-0.15268 -0.241368,-0.30536 -0.362052,-0.458039l0.482736,-0.458039l0.000001,0.000001zm-18.343954,-8.855423c0.120684,0 0.120684,0 0.120684,0.15268l2.896414,3.053594c0.120684,0 0.120684,0 0.120684,0.15268l5.672144,5.954509c-0.120684,0.15268 -0.120684,0 -0.120684,0.15268l-0.60342,0.610719c0,0 -0.120684,0 -0.120684,0.15268c-0.844787,0.763398 -1.810259,1.832157 -2.534362,2.595555l-0.362052,0.458039c-0.120684,0 -0.120684,0 -0.120684,0.15268l-2.413678,2.442875c-0.482736,0.458039 -1.206839,1.374117 -1.689575,1.832157c-0.241368,0.15268 -0.724103,0.763398 -0.844787,0.763398l0,-18.474245l-0.000001,-0.000001zm10.861552,8.855423c0,-0.15268 -0.120684,-0.15268 -0.120684,-0.30536l-5.792828,-6.107188c0,0 -0.120684,0 -0.120684,-0.15268c-0.120684,0 -0.120684,-0.15268 -0.241368,-0.15268c-0.60342,-0.610719 -1.568891,-1.832157 -2.292994,-2.595555c-0.120684,0 -0.120684,-0.15268 -0.241368,-0.15268c-0.120684,-0.15268 -0.120684,-0.15268 -0.241368,-0.15268c0,-0.15268 -0.241368,-0.30536 -0.241368,-0.458039l23.533362,0c0,0.15268 -0.241368,0.30536 -0.362052,0.458039c0,0 0,0 -0.120684,0l-2.77573,3.053594c-0.120684,0.15268 -0.120684,0.15268 -0.120684,0.15268c-0.120684,0 -0.120684,0 -0.120684,0.15268l-0.60342,0.610719c-0.241368,0.30536 -0.724103,0.763398 -1.086155,1.068758c0,0.15268 -0.120684,0.15268 -0.120684,0.30536l-4.706672,4.88575c-0.120684,0.15268 -0.241368,0.30536 -0.362052,0.30536c0,0.15268 -0.241368,0.30536 -0.362052,0.458039c0,0.15268 -0.241368,0.30536 -0.362052,0.30536c-0.120684,0.15268 -0.241368,0.30536 -0.362052,0.458039l-0.362052,0.458039l-2.413678,-2.595555l-0.000001,-0.000001zm-10.258132,-12.214377c-0.965471,0.15268 -1.568891,0.763398 -1.930942,1.526797c-0.482736,1.068758 -0.362052,2.290195 -0.362052,3.511633l0,15.87869c0,1.374117 0,2.290195 0.60342,3.206274c0.60342,0.916078 1.206839,1.221438 2.17231,1.221438l23.412678,0c0.482736,0 1.086155,0 1.568891,0c0.844787,-0.15268 1.568891,-0.916078 1.930942,-1.526797c0.482736,-1.068758 0.241368,-2.290195 0.241368,-3.511633c0.120684,-2.748235 0.120684,-5.34379 0,-7.939345c0,-2.595555 0,-5.34379 0,-7.939345c0,-1.374117 0.120684,-2.290195 -0.482736,-3.206274c-0.60342,-0.916078 -1.327523,-1.221438 -2.17231,-1.221438l-23.412678,0c-0.482736,0 -1.086155,0 -1.568891,0l0.000001,0z" id="svg_1"/>
  </g>
 </g>
</svg>