<svg width="145" height="80" xmlns="http://www.w3.org/2000/svg">
 <defs>
  <style type="text/css">
   <![CDATA[
    .fil2 {fill:none}
    .fil1 {fill:#DE2425}
    .fil0 {fill:#282827}
   ]]>
  </style>
 </defs>
 <g>
  <title>background</title>
  <rect x="-1" y="-1" width="147" height="82" id="canvas_background" fill="none"/>
 </g>
 <g>
  <title>Layer 1</title>
  <g stroke="null" id="Слой_x0020_1">
   <metadata stroke="null" transform="translate(-1,0) translate(-9,0) translate(7,-3) translate(-14,-7) translate(38,3) translate(-15,-26) translate(15.00461483001709,25.920501708984375) scale(0.5450583696365356,0.5412246584892273) translate(-15.00461483001709,-25.920501708984375) translate(0.008466671220958233,200.96566772460938) scale(1.0265631675720215,0.9632511734962463) translate(-0.008466671220958233,-200.96566772460938) translate(67.92156219482422,13.274571418762207) scale(0.8085185885429382,0.818783700466156) translate(-67.92156219482422,-13.274571418762207) translate(53.06107711791992,200.9263153076172) scale(0.8591821789741516,0.8602165579795837) translate(-53.06107711791992,-200.9263153076172) " id="CorelCorpID_0Corel-Layer"/>
   <g stroke="null" id="_2786615956112">
    <path stroke="null" class="fil0" d="m57.479125,71.71137l-0.34829,-1.41531c1.02165,-0.232017 0.487605,-0.185614 1.323501,0.208816c0.603702,0.278423 1.091307,0.185614 1.346719,-0.348024c-0.417945,-0.603249 -1.160964,-0.23202 -1.927199,-0.417634c-1.602133,-0.348027 -1.300282,-2.157767 0.162533,-2.528996c0.603702,-0.162413 0.417948,0 0.905553,0.023201c0.417948,0.023201 0.34829,-0.185614 1.02165,-0.208816c0.185754,0.39443 0.232194,0.835266 0.139315,1.2993c-1.021646,0.162413 -0.580481,-0.069604 -1.230622,-0.255219c-0.417948,-0.11601 -1.277061,0 -0.951989,0.51044c0.255412,0.417631 1.903981,0.046403 2.577341,0.603246c0.743017,0.603249 0.510823,2.389787 -1.787884,2.250576c-0.441169,-0.023201 -0.835895,0.162413 -1.230625,0.27842zm8.242851,-6.519704l1.439594,-0.487239c0.603702,0.78886 0.766238,2.505794 1.160968,2.83062c0.441166,0.324826 0.580481,-0.23202 0.673359,0.90487c-2.159396,0.90487 -1.230625,-0.069607 -1.857545,0.417631c-1.393158,1.067283 -1.99686,1.345706 -2.879191,-1.044081c-0.139318,-0.371229 -0.208975,-0.78886 -0.487605,-0.951273c-0.34829,-0.232017 -0.626923,0.11601 -0.603702,-0.812061l1.439594,-0.464037c0.39473,0.858467 0.650141,1.948951 1.114528,2.737811c1.625348,0.185614 1.300279,-1.345703 0.905553,-2.064959c-0.325072,-0.62645 -0.255415,-0.139211 -0.812677,-0.464037l-0.092876,-0.603246zm-5.038587,0.069604l0.951989,-0.255219c0.464387,1.531317 0.325072,1.136887 0.812677,1.229696c0.232194,0.046403 0.650141,-0.069607 0.487605,0.603246c-0.092879,0.39443 -0.208975,0.232017 -0.557263,0.51044c0.023218,0.255219 0.371508,1.508116 0.464384,1.69373c0.417948,0.788863 0.928774,-0.27842 1.02165,1.113686c-1.300279,0.62645 -1.811106,0.348027 -2.089735,-0.997676c-0.139318,-0.649651 -0.34829,-0.974477 -0.510826,-1.53132c-0.417948,-0.023201 -0.371508,0.046406 -0.696577,-0.116007c-0.232194,-1.113689 0.371508,-0.324826 0.371508,-1.044081c0,-0.208816 -0.255412,-0.858467 -0.255412,-1.206494zm15.046102,-2.575399c-0.510823,-2.645006 3.924062,-3.897903 4.550982,-0.788863c0.510826,2.528996 -3.94728,3.921104 -4.550982,0.788863zm-1.393158,-0.881669c0.278633,0.51044 0.510826,1.136887 0.766238,1.647327c0.905553,1.80974 0.394726,0.719256 1.184183,1.136887l0.139318,0.74246c-0.650141,0.208816 -1.323501,0.696051 -2.043299,0.719256c-0.673359,-1.345706 0.580484,-0.278423 -0.232194,-2.088163c-0.835892,-1.92575 -0.789456,-0.046403 -1.369937,-1.600924c0.603702,-0.208816 0.905553,-0.533641 1.555691,-0.556843zm-4.597418,-0.580044c0.27863,-0.162413 1.068086,-0.464037 1.439594,-0.487239c0.301851,0.440833 1.811106,4.222726 1.973642,4.872377c0.464387,0.023201 0.789456,-0.208816 0.882335,0.835266c-0.696581,0.255219 -0.951992,0.533641 -1.648573,0.324826c-0.417945,0.580044 -0.812674,1.020877 -1.903981,0.951273c-1.462815,-0.11601 -2.577341,-2.064962 -1.578912,-3.457067c0.557263,-0.765661 0.951992,-0.719256 2.159396,-0.858467c-0.046439,-0.324826 -0.255415,-1.090484 -0.510826,-1.276099c-0.510823,-0.39443 -0.719799,0.092806 -0.812674,-0.90487zm-20.479419,-16.566086c0.859114,0.139211 2.27549,-0.881669 3.94728,-1.484914c2.27549,-0.835266 3.366797,-1.276102 5.711947,-1.345706c2.020078,-0.046403 3.831184,1.716934 4.876051,3.178647c2.136175,2.969829 3.552551,7.424574 3.645429,10.997652c0.092876,3.155446 -0.905553,3.897903 -3.877623,4.825974c-4.899269,1.53132 -4.806394,1.368907 -9.334155,1.508119c-3.018509,0.069604 -8.637578,-0.974477 -11.098825,-2.621804c-1.64857,-1.113686 0.232194,-1.786539 1.300279,-2.018556c2.995291,-0.672853 5.920922,-0.742457 9.194843,-2.412989c0.557263,-0.301621 0.998428,-0.487236 1.532473,-0.765659c0.62692,-0.324826 2.995288,-1.345706 2.321929,-1.995354c-0.534044,-0.51044 -2.205832,0.649649 -2.716659,0.928071c-2.948849,1.670529 -10.239708,4.454746 -13.583286,1.832941c-1.99686,-1.600924 -2.136175,-4.709964 -1.555694,-7.006943c1.277061,-5.220404 4.806394,-9.721553 9.148404,-12.784193c1.578912,-1.136887 3.900841,-2.552197 6.083455,-2.5986c2.252271,-0.069604 4.016938,3.549876 4.22591,5.475626c0.185757,1.69373 -0.348287,1.2993 -1.509252,1.740133c-2.995291,1.13689 -4.016938,1.299303 -6.989008,2.784217c-0.557266,0.255219 -1.486037,0.90487 -1.323501,1.763337zm33.412567,7.35497c0.023218,0.928071 -0.97521,1.252897 -2.089739,1.995354c-0.27863,0.185614 -2.995288,1.763337 -3.575772,1.067283c-0.116097,-0.139211 -0.162533,-0.27842 -0.208972,-0.417631c-0.766238,-2.389784 -1.044868,-3.526674 -2.043299,-6.264486l-1.927199,-5.081196c-0.162536,-0.464034 -0.325072,-1.461713 -0.905553,-1.438511c-1.36994,0.069607 0.046439,2.691412 0.232194,3.248254c0.464384,1.18329 0.835892,2.273774 1.25384,3.433866c0.255412,0.649649 2.205832,6.682117 2.229053,7.35497c0.023218,0.858467 -5.456535,3.248251 -6.710375,3.271453c-0.046439,-0.858464 -0.046439,-1.740133 -0.069661,-2.621801c-0.139315,-4.570756 -1.230622,-6.821332 -2.90241,-10.649627c-1.64857,-3.758692 -9.078747,-13.364237 -9.101965,-14.617135c-0.023218,-0.533641 1.439597,-1.276099 1.927202,-1.531317c0.859114,-0.464037 1.393158,-0.74246 2.368368,-1.113689c1.393158,-0.533641 1.787884,-0.533641 2.461244,0.278423c1.71823,2.157767 2.925631,3.805094 4.295571,6.357294c0.417948,0.835263 0.696577,1.531317 1.114525,2.366583c0.208975,0.371229 0.464387,0.881669 0.789456,1.02088c0.673359,0.324823 0.696581,-0.278423 0.673359,-0.858467c-0.023218,-0.62645 -2.066517,-4.617159 -2.438026,-5.243609c-0.441166,-0.696051 -2.716655,-4.40834 -2.693437,-4.965183c0.046439,-1.206494 3.924059,-2.180972 5.293999,-2.389787c1.416376,-0.208816 1.532473,1.276099 2.554122,3.132244c0.255412,0.464034 0.441166,0.951273 0.673359,1.392109c1.36994,2.691409 3.854405,7.981417 4.899273,10.603222c1.114525,2.83062 2.205832,5.591633 3.041728,8.561464c0.139315,0.533641 0.859114,2.807416 0.859114,3.10904zm-3.204264,-29.930321c1.346719,-0.023204 1.160964,-0.069607 1.695009,1.160089c0.232194,0.580044 0.417948,1.067283 0.673359,1.624126c1.671788,3.573077 3.552551,9.0023 4.96893,12.876999c0.255412,0.672853 3.134603,9.90717 3.157821,10.394406c0.023221,0.696054 -1.903981,1.786539 -2.530901,2.134566c-0.812677,0.440836 -2.275493,1.368907 -3.343579,1.322504l-2.043299,-6.635714c-2.62378,-7.354973 -3.784744,-9.373529 -6.896129,-16.24126c-0.278633,-0.603249 -1.741448,-3.619483 -1.764666,-3.967507c-0.092879,-1.322504 5.688726,-2.645006 6.083455,-2.668207zm20.154347,1.322501c0.255415,-0.39443 0.998432,-3.665886 1.137746,-4.477947l0.951992,-4.431544c0.162533,-0.672853 0.371508,-0.696054 0.928771,-0.974474l10.262929,-4.663564c0.441166,-0.208816 0.859114,-0.371229 1.230622,-0.580044l0.092879,7.517383c-0.998432,0.580047 -6.292431,3.480272 -6.803254,4.222729c-0.278633,0.440833 -1.044871,1.995354 -0.97521,2.482593c0.580481,-0.092809 4.690297,-2.412989 5.340438,-2.761016c0.928771,-0.487236 4.783173,-2.668207 5.293999,-2.807416l0.835892,2.064959c0.069657,0.185614 0.116097,0.51044 0.185754,0.696054c-0.650138,0.533641 -1.787884,1.067283 -2.577341,1.484914l-7.685585,4.199527c0.162533,0.371229 2.554122,1.554521 3.111385,1.80974c1.393158,0.649651 1.60213,0.974477 2.27549,0.51044l2.902413,-1.995354c0.719799,-0.464037 1.277061,-0.90487 1.99686,-1.368907c0.696577,-0.440833 0.998428,-0.092806 2.345147,0.417631l3.552554,1.368907c0.348287,0.139211 0.743017,0.371229 1.068086,0.464037c-0.766235,0.556843 -1.532473,0.997676 -2.368368,1.531317l-4.829612,3.085842c-2.461247,1.57772 -1.532473,1.322501 -4.643858,1.392106c-0.301851,0.023201 -0.139318,-0.069604 -0.603702,-0.092806l-5.108245,-0.092809c-1.044871,-0.069604 -2.809537,-0.232017 -3.784747,-0.092806c-0.069657,0.672853 0,1.206494 0,1.856143c0,0.487239 -0.139315,0.974477 -0.208972,1.53132c-0.185754,2.157767 -2.298711,6.287687 -4.063377,6.658916l-1.718227,-6.635714c-0.534044,-1.647327 -1.903981,-5.243606 -3.018509,-6.612513c-0.510823,-0.649651 -1.369937,-1.647327 -2.321929,-1.484914c-0.023218,0.603246 1.091307,3.085839 1.36994,3.712289c0.928771,2.20417 3.831184,9.535939 3.900841,11.925723c0.046439,1.53132 -5.177902,4.083517 -6.315649,4.106719c-0.162536,-0.27842 -0.487605,-1.322501 -0.580484,-1.716931c-0.162533,-0.649651 -0.301851,-1.183293 -0.464384,-1.740136c-1.973642,-7.099752 -4.5742,-13.967483 -7.499834,-20.719208c-0.185754,-0.440833 -0.510823,-1.067283 -0.603702,-1.508116c0.998432,-0.62645 5.201124,-1.600924 6.826475,-1.64733c2.693437,-0.069604 4.249131,0.023204 6.896129,1.067283c1.393158,0.556846 2.461247,1.484917 3.668648,2.296979zm-4.249131,-18.283018c0.092879,-0.533641 0.232194,-1.299303 0.371512,-1.856146c0.208972,-1.020877 1.300279,-2.99303 -0.812677,-2.134566l-4.96893,1.786539c-0.789456,0.301624 -0.743017,0.464037 -1.184183,1.067283c-0.34829,0.464037 -0.580484,0.881669 -0.905553,1.368907l-2.716659,4.037114c-0.487605,0.765659 -0.417945,0.626447 -1.044868,1.136887c-0.719799,-0.603246 -6.84969,-2.227371 -7.917779,-2.366583c-3.552551,-0.487239 -6.199552,0 -9.055525,0.997676c-1.369937,0.487239 -2.600562,0.881669 -3.94728,1.368907c-0.650138,0.232017 -1.230622,0.440836 -1.973639,0.696054c-2.902413,0.90487 -6.710378,2.343381 -9.612788,3.410664c-2.670219,0.951273 -5.085027,1.948951 -7.406956,3.178647c-1.184186,0.649651 -2.182614,1.183293 -3.3668,1.948951c-3.041728,1.92575 -6.060234,4.385139 -8.149972,7.35497c-4.22591,5.962862 -3.622208,12.227347 3.064949,14.918759c0.789456,0.301621 2.321929,0.812061 3.297139,0.812061c-0.743017,3.689087 -3.250703,8.677475 -1.509255,13.457043c0.812677,2.250576 3.250703,4.199527 5.340438,5.1508c0.417948,0.185614 0.766238,0.39443 1.207404,0.580044c2.27549,0.974477 6.896129,2.528999 9.241279,2.853821c-1.068089,2.227374 -2.786316,5.452424 -0.441166,7.702997c2.414804,2.296979 6.431742,2.5522 9.798542,1.786539c0.371508,-0.069604 0.441166,-0.069604 0.789456,-0.185614c2.438026,-0.719256 4.667079,-1.600924 7.012226,-2.621801c0.928771,-0.417634 1.695009,-0.788863 2.554122,-1.183293c3.529333,-1.554521 9.009086,-4.570756 12.259789,-6.84453c3.227482,-2.227374 3.018506,-1.670532 2.925631,-4.524353c-0.023221,-1.229693 -0.069657,-2.48259 -0.092879,-3.712286c1.578912,-1.113689 4.249131,0.255219 5.479753,0.232017c1.555694,-0.046403 2.461247,-0.765659 3.482897,-1.716934c0.27863,-0.255219 0.464384,-0.371229 0.812674,-0.742457c0.812674,-0.881669 2.902413,-2.436187 3.041728,-3.201849c-0.696577,-0.603246 -2.298711,-0.765659 -3.343579,-0.997676l-3.482893,-0.74246c0.185754,-0.464034 1.555691,-1.18329 2.020078,-1.461713c1.369937,-0.881669 5.270781,-3.039436 6.153113,-4.037111c1.64857,-1.879347 3.99372,-8.190236 5.293999,-8.213437c1.137746,-0.046406 5.410096,1.322501 6.687157,1.740133c0.905553,0.301624 0.859114,0.278423 1.532473,-0.208816c0.417948,-0.301624 0.789456,-0.580044 1.184186,-0.881669c3.59899,-2.737811 6.896129,-5.54523 10.680877,-8.190236c1.973639,-1.392106 0.23219,-1.670529 -1.137746,-2.32018l-4.434886,-1.902546c-0.719799,-0.301624 -1.764666,-0.603249 -2.112957,-1.090484c0.325072,-0.533641 2.043299,-1.53132 2.205835,-1.856146c0.23219,-0.464034 -1.578912,-4.91878 -2.414808,-5.498824c-0.719799,-0.51044 -1.764666,0.092806 -2.948852,0.510437l-0.208972,-7.23896c-0.069657,-2.505794 0.162536,-3.73549 -1.950421,-2.668207c-4.063377,2.041757 -9.055525,4.24593 -12.724173,6.17168c-1.532476,0.812061 -1.393158,0.348024 -2.159396,1.670529c-0.859114,1.484914 -0.650141,1.392109 -1.207404,2.459392c-1.114525,-0.556843 -3.831184,-1.879347 -4.690297,-2.598603l1.486033,-7.401373zm-22.453057,55.011466c-0.998428,0.324826 -0.487605,1.693733 0.464387,1.438511c0.835892,-0.232017 0.557263,-1.786539 -0.464387,-1.438511zm-0.232194,-49.350228c3.041728,-0.974474 6.33887,0.742457 7.337298,3.8515c1.02165,3.085839 -0.650141,6.403697 -3.715087,7.401373c-3.041728,0.974477 -6.338867,-0.719256 -7.337298,-3.828296c-1.02165,-3.109043 0.650141,-6.426899 3.715087,-7.424577zm-29.767135,26.867686l-5.897701,-11.763313l1.973639,-1.693733l1.416379,4.12992l3.459672,-6.310889l3.506115,-0.78886l-5.433314,6.751722l8.057094,1.786539l-1.230622,3.22505l-7.383734,-4.477947l-0.812677,0.765661l5.735168,5.150797l-3.390018,3.22505l0,0.000003zm8.892989,-5.846854l-3.482893,-12.296955l4.179471,-1.740136c0.905553,-0.39443 1.671791,-0.440833 2.205835,-0.417631c0.557263,0.046403 1.044868,0.232017 1.509255,0.62645c0.441166,0.371229 0.743017,0.858464 0.928771,1.438511c0.255412,0.742457 0.208972,1.438511 -0.116097,2.111361c-0.301851,0.672853 -0.951992,1.229696 -1.903981,1.693733c0.417948,0.046403 0.766235,0.139211 0.998428,0.255219c0.534044,0.23202 1.068089,0.580044 1.602133,1.02088l2.345147,1.92575l-1.555691,2.041757c-1.393158,-1.716931 -1.880763,-2.993033 -3.645429,-4.199524c-1.462819,-0.974477 -1.462819,-0.371229 -2.995291,0.116007l3.784747,5.498827l-3.854405,1.92575zm-0.62692,-8.515062c6.687157,-2.157767 3.482893,-5.707643 0.743017,-3.61948l-1.811106,1.368907l1.068089,2.250573zm10.17005,3.874702l-3.041728,-11.48489l7.685585,-2.273777l0.534044,1.624126l-6.84969,1.624126l1.671788,3.596279l5.572632,-2.784214l0.859114,2.064959l-6.129894,1.53132l2.252271,3.805094l3.924062,-2.877023l2.252271,1.647327l-8.730456,3.526674z" id="svg_1"/>
    <path stroke="null" class="fil0" d="m70.155235,64.176157c-1.568445,0.750308 -0.4439,3.845326 1.479661,2.719864c1.390883,-0.78157 0.591865,-3.689011 -1.479661,-2.719864z" id="svg_2"/>
    <polygon stroke="null" class="fil1" points="85.87876892089844,58.303497314453125 87.0437240600586,56.02825927734375 84.33937072753906,56.967254638671875 81.75982666015625,55.34205627441406 82.0926742553711,57.942344665527344 79.55474090576172,59.350852966308594 82.63355255126953,59.96484375 83.13279724121094,62.709564208984375 84.75543212890625,60.289894104003906 88.00065612792969,60.18152618408203 " id="svg_3"/>
    <path stroke="null" class="fil0" d="m77.605188,60.795983c-1.984071,0.691741 -0.992034,3.584471 0.992034,3.049944c1.653392,-0.471642 1.08222,-3.741682 -0.992034,-3.049944z" id="svg_4"/>
    <line stroke="null" class="fil2" x1="164.234838" y1="1.737043" x2="164.234838" y2="1.737043" id="svg_5"/>
    <path stroke="null" class="fil0" d="m72.827391,12.393234c2.2528,-0.723272 4.62904,0.440255 5.338828,2.641521c0.709787,2.20127 -0.555484,4.591218 -2.808284,5.345939c-2.221941,0.723275 -4.629044,-0.440255 -5.307969,-2.641521c-0.709787,-2.20127 0.555484,-4.591218 2.777425,-5.345939z" id="svg_6"/>
   </g>
  </g>
 </g>
</svg>