<svg width="30" height="30" xmlns="http://www.w3.org/2000/svg">
 <defs>
  <style type="text/css">
   <![CDATA[
    .fil0 {fill:#2B2A29}
   ]]>
  </style>
 </defs>
 <g>
  <title>background</title>
  <rect fill="none" id="canvas_background" height="32" width="32" y="-1" x="-1"/>
 </g>
 <g>
  <title>Layer 1</title>
  <g stroke="null" id="Слой_x0020_1">
   <metadata stroke="null" transform="translate(-0.000012099742889404297,0) translate(0,0.4877907633781433) translate(-0.48780426383018494,-1.2195106744766235) translate(0.24390213191509247,0) translate(0.7104984521865845,1.6723155975341797) scale(0.6585902571678162,0.6183750033378601) translate(-0.7104984521865845,-1.6723155975341797) translate(0.7084773778915405,0.7322496175765991) scale(0.9085185527801514,0.9746379852294922) translate(-0.7084773778915405,-0.7322496175765991) " id="CorelCorpID_0Corel-Layer"/>
   <path stroke="null" id="svg_1" d="m28.995342,23.967125c0,-0.245411 0,-0.490822 0,-0.736233c-0.269036,-0.245411 -0.269036,-0.490822 -0.538073,-0.490822c0,-0.245411 0,-0.245411 0,-0.245411c0,0 0,0 -0.269036,0c0,0 0,-0.245411 0,-0.245411c-0.269036,-0.245411 -0.538073,-0.245411 -0.538073,-0.490822c0,0 0,0 0,0c-0.269036,-0.245411 -0.538073,-0.245411 -0.538073,-0.490822l-0.807109,-0.490822c0,0 0,0 0,0c-0.538073,-0.490822 -1.345182,-0.981644 -1.883255,-1.227055c0,-0.245411 0,-0.245411 0,-0.245411c-1.614218,-0.736233 -2.9594,-0.490822 -4.304582,0.245411l-0.538073,0.490822c-0.538073,0.490822 -1.076145,1.472466 -2.421328,1.717877c-1.076145,0 -2.152291,-0.490822 -2.9594,-1.227055l-0.807109,-0.490822c-0.538073,-0.490822 -1.345182,-1.227055 -1.883255,-1.717877l-1.614218,-1.963288c0,0 0,0 -0.269036,-0.245411l-0.269036,-0.490822c-0.269036,-0.245411 -0.538073,-0.490822 -0.538073,-0.981644l-0.269036,0c0,-0.245411 0,-0.245411 0,-0.245411c-0.807109,-1.227055 -1.076145,-2.208699 0,-3.435754l0.269036,0c0,-0.245411 0.269036,-0.245411 0.269036,-0.245411l0.538073,-0.490822c0,0 0.269036,0 0.269036,0c0,-0.245411 0.269036,-0.245411 0.269036,-0.245411c0.269036,-0.245411 0.538073,-0.490822 0.807109,-0.490822c0.269036,-0.245411 0.538073,-0.490822 0.538073,-0.736233c0.807109,-1.472466 -0.269036,-3.681165 -1.076145,-4.90822c-0.269036,0 -0.269036,-0.245411 -0.269036,-0.245411l-0.269036,-0.490822c-0.269036,0 -0.269036,0 -0.269036,0c0,-0.245411 0,-0.245411 0,-0.245411l-0.807109,-0.981644c-0.269036,0 -0.269036,0 -0.269036,-0.245411c-0.269036,-0.245411 -0.269036,-0.245411 -0.538073,-0.490822c-1.076145,-0.490822 -2.421328,0 -3.228436,0.490822c-0.269036,0.245411 -0.807109,0.490822 -1.076145,0.736233c0,0.245411 -0.269036,0.490822 -0.538073,0.736233l-1.076145,1.227055c0,0 0,0 0,0.245411c-0.538073,0.736233 -1.076145,1.717877 -1.345182,2.699521c-0.538073,2.208699 -0.269036,4.417398 0.538073,6.380686c0.269036,0.490822 0.538073,0.981644 0.807109,1.472466l0.807109,1.472466c0,0.245411 0,0.245411 0,0.490822c0.269036,0 0.269036,0.245411 0.538073,0.490822l2.152291,2.699521c0.269036,0.245411 0,0 0.269036,0l1.076145,1.227055c0,0 0,0.245411 0.269036,0.245411c0,0.245411 0,0 0,0.245411c0,0 0,0 0.269036,0c0,0.245411 0.269036,0.490822 0.269036,0.490822l0.807109,0.736233c0.269036,0.245411 0.269036,0.245411 0.269036,0.245411c0,0.245411 0,0.245411 0.269036,0.245411c0,0 0,0 0,0c0.269036,0.245411 0.538073,0.736233 0.807109,0.981644l1.883255,1.227055c0.269036,0.245411 0.538073,0.245411 0.807109,0.490822c0,0 0.269036,0.245411 0.538073,0.245411l0.807109,0.490822c0,0 0,0 0,0c1.614218,0.736233 3.766509,1.717877 5.649764,1.717877c0.807109,0.245411 1.614218,0.245411 2.421328,0c0,0 0,0 0.269036,0l0.538073,-0.245411c0.538073,0 1.076145,-0.245411 1.614218,-0.490822c0.269036,0 0.538073,0 0.538073,-0.245411l1.614218,-0.981644c0,0 0,0 0,0l1.076145,-0.736233c0,0 0,0 0.269036,-0.245411l0.807109,-0.736233c0.269036,-0.490822 0.269036,-0.736233 0.269036,-1.227055l-0.000002,0.000001z" class="fil0"/>
   <path stroke="null" id="svg_2" d="m15.00545,6.052124c0.269036,0 1.883255,0.245411 2.690364,0.245411l0.538073,0.245411c0.807109,0.245411 1.883255,0.490822 2.690364,0.736233c0,0.245411 0.269036,0.245411 0.538073,0.245411l0.807109,0.736233c0.538073,0.245411 1.614218,1.227055 1.883255,1.472466l0.538073,0.490822c0.269036,0.490822 0.807109,1.472466 1.076145,1.963288c0.538073,0.981644 1.076145,2.944932 1.076145,4.171987l2.690364,0l0,-1.472466c-0.269036,-0.736233 -0.538073,-1.963288 -0.807109,-2.699521c-0.269036,-0.981644 -0.538073,-1.227055 -1.076145,-2.208699l-1.614218,-2.208699c-0.269036,0 -0.807109,-0.736233 -1.076145,-0.981644l-0.538073,-0.245411c-0.538073,-0.490822 -1.883255,-1.227055 -2.152291,-1.472466c-1.883255,-0.736233 -3.766509,-1.227055 -5.649764,-1.472466c-0.269036,0 -1.345182,-0.245411 -1.614218,0l0,2.45411l-0.000001,-0.000001z" class="fil0"/>
   <path stroke="null" id="svg_3" d="m15.00545,11.205754c1.076145,0 1.883255,0.245411 2.690364,0.490822c0.538073,0.245411 1.883255,0.981644 2.152291,1.472466c0,0 0,0 0,0c0.807109,0.981644 1.345182,2.208699 1.345182,3.435754l2.690364,0c0,-1.717877 -0.269036,-2.45411 -1.076145,-3.926575c-0.269036,-0.736233 -0.538073,-0.736233 -0.807109,-1.227055c-0.269036,0 -0.807109,-0.490822 -0.807109,-0.736233l-0.807109,-0.490822c-0.538073,-0.245411 -1.076145,-0.736233 -1.614218,-0.736233c-0.807109,-0.490822 -2.690364,-0.981644 -3.766509,-0.736233l0,2.45411l0,0.000001z" class="fil0"/>
  </g>
 </g>
</svg>