<svg width="88" height="88" xmlns="http://www.w3.org/2000/svg">
 <defs>
  <style type="text/css">
   <![CDATA[
    .fil0 {fill:#B0CB1F}
   ]]>
  </style>
 </defs>
 <g>
  <title>background</title>
  <rect fill="none" id="canvas_background" height="90" width="90" y="-1" x="-1"/>
 </g>
 <g>
  <title>Layer 1</title>
  <g stroke="null" id="Слой_x0020_1">
   <metadata stroke="null" transform="translate(-2,-2) translate(1,-45) translate(1,6) translate(-0.25,0) scale(0.7005344033241272,0.6637692451477051) translate(0.25,0) translate(1.0706108808517456,258.8677062988281) scale(0.7549105286598206,0.7768778204917908) translate(-1.0706108808517456,-258.8677062988281) translate(-0.4727325141429901,-7.756933212280273) scale(0.6677894592285156,0.7127963304519653) translate(0.4727325141429901,7.756933212280273) " id="CorelCorpID_0Corel-Layer"/>
   <g stroke="null" id="_2786477412960">
    <path stroke="null" id="svg_1" d="m43.629423,25.405279c-0.706309,0.367566 -1.412617,1.83783 -1.765772,2.572962l-2.825234,5.881056c-0.353154,1.102698 -0.706309,0.735132 -3.178389,1.102698c-1.059463,0 -2.47208,0.367566 -3.531543,0.367566c-0.706309,0.367566 -2.825234,0.367566 -3.178389,1.102698c-1.059463,1.102698 0.353154,1.83783 0.706309,2.572962l5.297315,5.51349c0.706309,0.367566 0.353154,0.367566 0.353154,1.470264c-0.353154,2.572962 -1.059463,5.145924 -1.412617,7.35132c-0.353154,2.205396 1.059463,2.572962 2.118926,2.205396c2.118926,-1.102698 4.591006,-2.940528 6.709932,-4.043226c1.412617,-0.735132 1.059463,-0.367566 4.237852,1.102698c0.706309,0.735132 1.765772,1.102698 2.825234,1.470264c0.706309,0.367566 2.118926,1.470264 2.825234,1.470264c1.412617,0 1.059463,-1.83783 0.706309,-2.940528c-0.353154,-2.572962 -0.706309,-5.145924 -1.059463,-7.35132c0,-0.735132 0.353154,-1.102698 0.706309,-1.470264l5.297315,-5.145924c0.353154,-0.367566 0.706309,-0.735132 0.706309,-1.470264c0,-0.735132 -0.353154,-1.102698 -0.706309,-1.102698c-0.706309,-0.367566 -6.003623,-1.102698 -7.416241,-1.102698c-2.118926,-0.367566 -1.765772,0 -2.47208,-1.83783l-2.825234,-5.881056c-0.353154,-0.735132 -0.706309,-2.572962 -2.118926,-1.83783z" class="fil0"/>
    <path stroke="null" id="svg_2" d="m42.923114,86.788797c0,0.735132 1.059463,1.470264 1.765772,0.735132c0.706309,-0.367566 0.706309,-1.470264 0.706309,-2.572962c0,-2.205396 0,-18.010733 0,-18.745865c-0.353154,-0.735132 -1.412617,-1.102698 -2.118926,-0.735132c-0.706309,0.735132 -0.353154,1.470264 -0.353154,2.572962c0,2.940528 -0.353154,18.010733 0,18.745865z" class="fil0"/>
    <path stroke="null" id="svg_3" d="m28.443788,59.588915c0.706309,-1.470264 -0.706309,-2.205396 -1.765772,-1.470264c-0.706309,0.735132 -1.412617,1.470264 -2.118926,2.205396c-1.412617,1.470264 -11.654092,11.762111 -12.007247,12.497243c-0.353154,1.470264 1.059463,2.205396 2.118926,1.470264c0.353154,-0.367566 1.059463,-1.102698 1.765772,-1.83783c2.47208,-2.572962 5.650469,-5.881056 8.122549,-8.454017c0.706309,-0.735132 1.412617,-1.470264 2.118926,-2.205396c0.353154,-0.367566 1.765772,-1.83783 1.765772,-2.205396z" class="fil0"/>
    <path stroke="null" id="svg_4" d="m74.000693,9.232376c-0.706309,0.367566 -10.594629,10.659413 -12.007247,12.129677c-0.706309,0.735132 -1.765772,1.470264 -2.118926,2.205396c-0.706309,0.735132 0,2.572962 1.412617,2.205396c0.353154,-0.367566 10.594629,-11.026979 12.007247,-12.497243c0.706309,-0.735132 1.412617,-1.470264 2.118926,-2.205396c0.706309,-0.735132 -0.353154,-2.572962 -1.412617,-1.83783z" class="fil0"/>
    <path stroke="null" id="svg_5" d="m42.56996,-2.162169l0,16.908035c0,1.83783 -0.353154,3.67566 1.412617,3.67566c1.765772,0 1.412617,-2.940528 1.412617,-5.51349l0,-15.070205c0,-1.102698 -0.353154,-1.83783 -1.412617,-1.83783c-1.059463,0 -1.412617,0.735132 -1.412617,1.83783z" class="fil0"/>
    <path stroke="null" id="svg_6" d="m12.904998,9.232376c-0.353154,0.367566 -0.706309,0.735132 -0.353154,1.470264c0,0.735132 6.356778,6.616188 6.709932,7.35132l6.003623,6.248622c0.706309,0.367566 1.412617,1.83783 2.825234,1.102698c0.353154,0 0.353154,-0.735132 0.353154,-1.102698c0,-0.735132 -0.706309,-1.102698 -0.706309,-1.470264l-10.241475,-10.291847c-0.706309,-0.735132 -1.059463,-1.102698 -1.765772,-1.83783c-0.706309,-0.735132 -1.765772,-2.205396 -2.825234,-1.470264z" class="fil0"/>
    <path stroke="null" id="svg_7" d="m1.60406,43.048446l16.245098,0c1.765772,0 3.531543,0.367566 3.531543,-1.102698c0,-1.83783 -2.825234,-1.470264 -5.297315,-1.470264l-14.479327,0c-2.47208,0 -2.47208,2.572962 0,2.572962z" class="fil0"/>
    <path stroke="null" id="svg_8" d="m68.350225,43.048446l18.01087,0c2.118926,0 2.118926,-1.470264 1.412617,-1.83783c-0.353154,-0.735132 -2.118926,-0.735132 -3.178389,-0.735132l-16.245098,0c-1.059463,0 -1.765772,0.367566 -1.765772,1.470264c0,1.102698 0.706309,1.102698 1.765772,1.102698z" class="fil0"/>
    <path stroke="null" id="svg_9" d="m59.874521,59.956481c0,0.367566 3.178389,3.67566 3.884697,4.043226c1.059463,1.470264 9.182012,9.924281 9.888321,10.291847c1.059463,0.735132 2.118926,0 1.765772,-1.470264c0,-0.367566 -3.531543,-3.67566 -3.884697,-4.043226l-9.888321,-10.291847c-0.706309,-0.735132 -2.118926,0.367566 -1.765772,1.470264z" class="fil0"/>
    <path stroke="null" id="svg_10" d="m22.08701,49.297067c-2.118926,1.102698 -4.237852,2.572962 -6.356778,3.67566l-3.178389,1.470264c-1.059463,1.102698 -0.353154,3.308094 1.412617,2.572962c1.059463,-0.367566 9.182012,-5.145924 9.535166,-5.145924c1.059463,-1.102698 0,-2.940528 -1.412617,-2.572962z" class="fil0"/>
    <path stroke="null" id="svg_11" d="m54.577206,70.98346c0.353154,1.102698 1.059463,2.572962 1.412617,3.308094c1.059463,1.470264 3.178389,0.735132 2.825234,-0.735132c0,-0.367566 -1.412617,-2.940528 -1.765772,-3.308094c-0.706309,-1.470264 -1.059463,-2.205396 -1.765772,-3.308094l-1.412617,-3.308094c-1.059463,-1.470264 -3.178389,-0.735132 -2.825234,0.735132l3.531543,6.616188z" class="fil0"/>
    <path stroke="null" id="svg_12" d="m30.562713,8.497244c-1.765772,0.735132 -0.706309,2.205396 -0.353154,3.308094l3.531543,6.616188c0.353154,1.102698 1.059463,2.940528 2.47208,2.205396c0.706309,0 1.059463,-0.735132 0.706309,-1.470264l-2.47208,-4.778358c-0.353154,-1.102698 -1.059463,-2.572962 -1.765772,-3.308094c-0.353154,-1.102698 -0.706309,-2.940528 -2.118926,-2.572962z" class="fil0"/>
    <path stroke="null" id="svg_13" d="m74.353848,26.875543l-9.535166,5.145924c-1.059463,0.735132 -0.706309,2.940528 1.059463,2.572962l9.535166,-5.145924c1.412617,-1.102698 0.353154,-3.308094 -1.059463,-2.572962z" class="fil0"/>
    <path stroke="null" id="svg_14" d="m36.566337,64.367272c0.353154,-1.102698 -1.412617,-2.205396 -2.47208,-0.735132l-3.178389,6.616188c-0.353154,0.367566 -1.412617,2.572962 -1.765772,3.308094c-0.353154,1.470264 1.765772,2.205396 2.47208,0.735132c0.706309,-0.735132 1.059463,-2.205396 1.765772,-3.308094c0.353154,-0.735132 2.825234,-5.881056 3.178389,-6.616188z" class="fil0"/>
    <path stroke="null" id="svg_15" d="m56.696132,8.86481c-0.706309,0 -0.706309,0.367566 -1.059463,1.102698l-2.47208,5.145924c-0.706309,0.735132 -1.059463,1.83783 -1.765772,2.940528c0,0.735132 -0.706309,1.102698 -0.353154,1.83783c0.353154,0.735132 0.706309,1.102698 1.765772,1.102698c0.353154,-0.367566 0.706309,-1.102698 1.059463,-1.470264l2.47208,-5.145924c0.353154,-1.102698 1.059463,-2.205396 1.412617,-2.940528c0.353154,-0.735132 0.706309,-1.470264 0.353154,-2.205396c0,-0.367566 -0.706309,-0.735132 -1.412617,-0.367566z" class="fil0"/>
    <path stroke="null" id="svg_16" d="m12.904998,26.507977c-0.706309,0.367566 -1.059463,0.735132 -0.706309,1.83783c0,0.367566 0.706309,0.735132 1.059463,1.102698l7.769395,4.043226c0.706309,0.367566 1.059463,0.735132 1.765772,0.735132c0.706309,-0.367566 1.059463,-0.735132 1.059463,-1.83783c0,-0.367566 -0.706309,-0.735132 -1.412617,-1.102698l-7.769395,-4.043226c-0.353154,-0.367566 -1.059463,-0.735132 -1.765772,-0.735132z" class="fil0"/>
    <path stroke="null" id="svg_17" d="m65.171836,49.297067c-0.706309,0 -1.059463,0.367566 -1.059463,1.470264c0.353154,0.735132 0.706309,0.735132 1.412617,1.102698l6.356778,3.308094c0.706309,0.735132 2.47208,1.83783 3.178389,1.470264c0.706309,0 1.059463,-0.735132 0.706309,-1.470264c0,-0.735132 -0.353154,-1.102698 -1.059463,-1.102698c-1.059463,-0.735132 -2.118926,-1.102698 -3.178389,-1.83783l-4.591006,-2.572962c-0.706309,-0.367566 -1.059463,-0.735132 -1.765772,-0.367566z" class="fil0"/>
   </g>
  </g>
 </g>
</svg>