<svg width="340" height="280" xmlns="http://www.w3.org/2000/svg">
 <defs>
  <style type="text/css">
   <![CDATA[
    .fil2 {fill:none}
    .fil1 {fill:#DE2425}
    .fil0 {fill:#282827}
   ]]>
  </style>
 </defs>
 <g>
  <title>background</title>
  <rect fill="none" id="canvas_background" height="282" width="342" y="-1" x="-1"/>
 </g>
 <g>
  <title>Layer 1</title>
  <g stroke="null" id="Слой_x0020_1">
   <metadata stroke="null" transform="translate(-439.9953918457031,-2169.977294921875) translate(0.2518310546875,0) translate(-1499.984375,-1799.981201171875) translate(1,1) translate(1,1) translate(1,1) translate(1,1) translate(5689.2177734375,1385.9061279296875) scale(0.8798452019691467,1) translate(-5689.2177734375,-1385.9061279296875) translate(2221.677734375,4568.72265625) scale(0.49123379588127136,0.41247618198394775) translate(-2221.677734375,-4568.72265625) translate(1052.729736328125,6712.48828125) scale(0.694743812084198,0.9466808438301086) translate(-1052.729736328125,-6712.48828125) translate(1515.277587890625,7090.55029296875) scale(0.584158718585968,0.46091628074645996) translate(-1515.277587890625,-7090.55029296875) translate(85.54108428955078,144.01866149902344) scale(0.9886625409126282,1) translate(-85.54108428955078,-144.01866149902344) " id="CorelCorpID_0Corel-Layer"/>
   <g stroke="null" id="_2786615956112">
    <path stroke="null" id="svg_1" d="m101.836901,268.303351l-1.100757,-4.845919c3.228888,-0.794413 1.54106,-0.63553 4.182878,0.714972c1.907979,0.953296 3.449039,0.63553 4.256262,-1.191619c-1.320909,-2.065474 -3.669191,-0.794413 -6.090857,-1.429943c-5.063484,-1.191619 -4.109494,-7.388041 0.513687,-8.659102c1.907979,-0.556089 1.320909,0 2.861969,0.079441c1.320909,0.079441 1.100757,-0.63553 3.228888,-0.714972c0.587071,1.350502 0.733838,2.859887 0.440303,4.448713c-3.228888,0.556089 -1.834595,-0.238324 -3.889342,-0.873854c-1.320909,-0.397206 -4.03611,0 -3.008737,1.747709c0.807222,1.429943 6.017473,0.158883 8.145604,2.065474c2.348282,2.065474 1.614444,8.182454 -5.650554,7.705806c-1.394293,-0.079441 -2.641817,0.556089 -3.889342,0.953296zm26.051256,-22.323005l4.549797,-1.668267c1.907979,2.701004 2.421666,8.57966 3.669191,9.691838c1.394293,1.112178 1.834595,-0.794413 2.128131,3.098211c-6.824695,3.098211 -3.889342,-0.238324 -5.870706,1.429943c-4.403029,3.6543 -6.311008,4.607595 -9.099594,-3.574858c-0.440303,-1.271061 -0.660454,-2.701004 -1.54106,-3.257093c-1.100757,-0.794413 -1.981363,0.397206 -1.907979,-2.780445l4.549797,-1.588826c1.247525,2.939328 2.054747,6.673069 3.522423,9.374073c5.136867,0.63553 4.109494,-4.607595 2.861969,-7.070276c-1.027373,-2.144915 -0.807222,-0.476648 -2.568434,-1.588826l-0.293535,-2.065474zm-15.924289,0.238324l3.008737,-0.873854c1.467676,5.243126 1.027373,3.892624 2.568434,4.210389c0.733838,0.158883 2.054747,-0.238324 1.54106,2.065474c-0.293535,1.350502 -0.660454,0.794413 -1.761212,1.747709c0.073384,0.873854 1.174141,5.163684 1.467676,5.799215c1.320909,2.701004 2.935353,-0.953296 3.228888,3.813182c-4.109494,2.144915 -5.723938,1.191619 -6.604544,-3.415976c-0.440303,-2.224356 -1.100757,-3.336535 -1.614444,-5.243126c-1.320909,-0.079441 -1.174141,0.158883 -2.201515,-0.397206c-0.733838,-3.813182 1.174141,-1.112178 1.174141,-3.574858c0,-0.714972 -0.807222,-2.939328 -0.807222,-4.130948zm47.552715,-8.817984c-1.614444,-9.056308 12.401865,-13.346138 14.383229,-2.701004c1.614444,8.659102 -12.475249,13.425579 -14.383229,2.701004zm-4.403029,-3.018769c0.880606,1.747709 1.614444,3.892624 2.421666,5.640332c2.861969,6.196421 1.247525,2.46268 3.742575,3.892624l0.440303,2.542122c-2.054747,0.714972 -4.182878,2.383239 -6.457776,2.46268c-2.128131,-4.607595 1.834595,-0.953296 -0.733838,-7.149717c-2.641817,-6.593628 -2.49505,-0.158883 -4.329645,-5.48145c1.907979,-0.714972 2.861969,-1.82715 4.916716,-1.906591zm-14.529996,-1.986032c0.880606,-0.556089 3.375656,-1.588826 4.549797,-1.668267c0.95399,1.509385 5.723938,14.458316 6.237625,16.682673c1.467676,0.079441 2.49505,-0.714972 2.788585,2.859887c-2.201515,0.873854 -3.008737,1.82715 -5.210251,1.112178c-1.320909,1.986032 -2.568434,3.495417 -6.017473,3.257093c-4.623181,-0.397206 -8.145604,-7.070276 -4.9901,-11.836753c1.761212,-2.621563 3.008737,-2.46268 6.824695,-2.939328c-0.146768,-1.112178 -0.807222,-3.733741 -1.614444,-4.369271c-1.614444,-1.350502 -2.274898,0.317765 -2.568434,-3.098211zm-64.724528,-56.721087c2.715201,0.476648 7.191614,-3.018769 12.475249,-5.084243c7.191614,-2.859887 10.640654,-4.369271 18.052419,-4.607595c6.384392,-0.158883 12.10833,5.878656 15.410602,10.883458c6.751311,10.168486 11.227724,25.421215 11.52126,37.655175c0.293535,10.804017 -2.861969,13.346138 -12.255098,16.52379c-15.483986,5.243126 -15.190451,4.687037 -29.500295,5.163684c-9.539896,0.238324 -27.298781,-3.336535 -35.077466,-8.976867c-5.210251,-3.813182 0.733838,-6.11698 4.109494,-6.911393c9.466513,-2.303798 18.712874,-2.542122 29.059992,-8.261895c1.761212,-1.032737 3.155504,-1.668267 4.843332,-2.621563c1.981363,-1.112178 9.466513,-4.607595 7.338382,-6.831952c-1.687828,-1.747709 -6.971463,2.224356 -8.585907,3.177652c-9.319745,5.719773 -32.362264,15.252729 -42.929534,6.275863c-6.311008,-5.48145 -6.751311,-16.126584 -4.916716,-23.991272c4.03611,-17.874292 15.190451,-33.285904 28.913225,-43.772155c4.9901,-3.892624 12.328482,-8.738543 19.226561,-8.897425c7.11823,-0.238324 12.695401,12.154519 13.355855,18.748146c0.587071,5.799215 -1.100757,4.448713 -4.769948,5.958097c-9.466513,3.892624 -12.695401,4.448713 -22.08853,9.532956c-1.761212,0.873854 -4.696564,3.098211 -4.182878,6.037539zm105.599316,25.182892c0.073384,3.177652 -3.08212,4.28983 -6.604544,6.831952c-0.880606,0.63553 -9.466513,6.037539 -11.301108,3.6543c-0.366919,-0.476648 -0.513687,-0.953296 -0.660454,-1.429943c-2.421666,-8.182454 -3.302272,-12.075077 -6.457776,-21.449151l-6.090857,-17.397644c-0.513687,-1.588826 -1.027373,-5.004802 -2.861969,-4.92536c-4.329645,0.238324 0.146768,9.215191 0.733838,11.121782c1.467676,4.051506 2.641817,7.785247 3.962726,11.757312c0.807222,2.224356 6.971463,22.879094 7.044847,25.182892c0.073384,2.939328 -17.245197,11.121782 -21.207924,11.201223c-0.146768,-2.939328 -0.146768,-5.958097 -0.220151,-8.976867c-0.440303,-15.649936 -3.889342,-23.355742 -9.172977,-36.463556c-5.210251,-12.86949 -28.693073,-45.758188 -28.766457,-50.048018c-0.073384,-1.82715 4.549797,-4.369271 6.090857,-5.243126c2.715201,-1.588826 4.403029,-2.542122 7.48515,-3.813182c4.403029,-1.82715 5.650554,-1.82715 7.778685,0.953296c5.430403,7.388041 9.246361,13.028373 13.576007,21.766916c1.320909,2.859887 2.201515,5.243126 3.522423,8.103012c0.660454,1.271061 1.467676,3.018769 2.49505,3.495417c2.128131,1.112178 2.201515,-0.953296 2.128131,-2.939328c-0.073384,-2.144915 -6.53116,-15.808818 -7.705301,-17.953733c-1.394293,-2.383239 -8.585907,-15.093847 -8.512523,-17.000438c0.146768,-4.130948 12.401865,-7.467482 16.731511,-8.182454c4.476413,-0.714972 4.843332,4.369271 8.07222,10.724575c0.807222,1.588826 1.394293,3.257093 2.128131,4.766478c4.329645,9.215191 12.181714,27.327807 15.483986,36.304673c3.522423,9.691838 6.971463,19.145353 9.61328,29.313839c0.440303,1.82715 2.715201,9.612397 2.715201,10.645134zm-10.126967,-102.479275c4.256262,-0.079441 3.669191,-0.238324 5.357019,3.972065c0.733838,1.986032 1.320909,3.6543 2.128131,5.560891c5.283635,12.23396 11.227724,30.823224 15.704137,44.089921c0.807222,2.303798 9.906816,33.921434 9.980199,35.589702c0.073384,2.383239 -6.017473,6.11698 -7.998836,7.308599c-2.568434,1.509385 -7.191614,4.687037 -10.56727,4.528154l-6.457776,-22.720211c-8.292372,-25.182892 -11.961563,-32.094285 -21.794994,-55.608909c-0.880606,-2.065474 -5.503786,-12.392843 -5.57717,-13.584462c-0.293535,-4.528154 17.979036,-9.056308 19.226561,-9.135749zm63.697155,4.528154c0.807222,-1.350502 3.155504,-12.551725 3.595807,-15.332171l3.008737,-15.173288c0.513687,-2.303798 1.174141,-2.383239 2.935353,-3.336535l32.435648,-15.967701c1.394293,-0.714972 2.715201,-1.271061 3.889342,-1.986032l0.293535,25.738981c-3.155504,1.986032 -19.887015,11.916195 -21.501459,14.458316c-0.880606,1.509385 -3.302272,6.831952 -3.08212,8.500219c1.834595,-0.317765 14.823531,-8.261895 16.878278,-9.453515c2.935353,-1.668267 15.117067,-9.135749 16.731511,-9.612397l2.641817,7.070276c0.220151,0.63553 0.366919,1.747709 0.587071,2.383239c-2.054747,1.82715 -5.650554,3.6543 -8.145604,5.084243l-24.290044,14.378875c0.513687,1.271061 8.07222,5.322567 9.833432,6.196421c4.403029,2.224356 5.063484,3.336535 7.191614,1.747709l9.172977,-6.831952c2.274898,-1.588826 4.03611,-3.098211 6.311008,-4.687037c2.201515,-1.509385 3.155504,-0.317765 7.411766,1.429943l11.227724,4.687037c1.100757,0.476648 2.348282,1.271061 3.375656,1.588826c-2.421666,1.906591 -4.843332,3.415976 -7.48515,5.243126l-15.263834,10.565693c-7.778685,5.402008 -4.843332,4.528154 -14.676764,4.766478c-0.95399,0.079441 -0.440303,-0.238324 -1.907979,-0.317765l-16.14444,-0.317765c-3.302272,-0.238324 -8.879442,-0.794413 -11.961563,-0.317765c-0.220151,2.303798 0,4.130948 0,6.355304c0,1.668267 -0.440303,3.336535 -0.660454,5.243126c-0.587071,7.388041 -7.264998,21.528592 -12.842168,22.799653l-5.430403,-22.720211c-1.687828,-5.640332 -6.017473,-17.953733 -9.539896,-22.64077c-1.614444,-2.224356 -4.329645,-5.640332 -7.338382,-5.084243c-0.073384,2.065474 3.449039,10.565693 4.329645,12.710608c2.935353,7.546923 12.10833,32.650374 12.328482,40.832827c0.146768,5.243126 -16.364592,13.981669 -19.960399,14.06111c-0.513687,-0.953296 -1.54106,-4.528154 -1.834595,-5.878656c-0.513687,-2.224356 -0.95399,-4.051506 -1.467676,-5.958097c-6.237625,-24.309037 -14.456612,-47.823662 -23.702974,-70.941079c-0.587071,-1.509385 -1.614444,-3.6543 -1.907979,-5.163684c3.155504,-2.144915 16.437975,-5.48145 21.574843,-5.640332c8.512523,-0.238324 13.429239,0.079441 21.794994,3.6543c4.403029,1.906591 7.778685,5.084243 11.594643,7.864689zm-13.429239,-62.599743c0.293535,-1.82715 0.733838,-4.448713 1.174141,-6.355304c0.660454,-3.495417 4.109494,-10.247927 -2.568434,-7.308599l-15.704137,6.11698c-2.49505,1.032737 -2.348282,1.588826 -3.742575,3.6543c-1.100757,1.588826 -1.834595,3.018769 -2.861969,4.687037l-8.585907,13.822786c-1.54106,2.621563 -1.320909,2.144915 -3.302272,3.892624c-2.274898,-2.065474 -21.648227,-7.626365 -25.023882,-8.103012c-11.227724,-1.668267 -19.59348,0 -28.619689,3.415976c-4.329645,1.668267 -8.218988,3.018769 -12.475249,4.687037c-2.054747,0.794413 -3.889342,1.509385 -6.237625,2.383239c-9.172977,3.098211 -21.207924,8.023571 -30.380901,11.677871c-8.439139,3.257093 -16.071056,6.673069 -23.409438,10.883458c-3.742575,2.224356 -6.898079,4.051506 -10.640654,6.673069c-9.61328,6.593628 -19.153177,15.014405 -25.757721,25.182892c-13.355855,20.416414 -11.447876,41.865564 9.686664,51.080755c2.49505,1.032737 7.338382,2.780445 10.420502,2.780445c-2.348282,12.631166 -10.273735,29.711046 -4.769948,46.075953c2.568434,7.705806 10.273735,14.378875 16.878278,17.635968c1.320909,0.63553 2.421666,1.350502 3.815959,1.986032c7.191614,3.336535 21.794994,8.659102 29.20676,9.77128c-3.375656,7.626365 -8.806058,18.668705 -1.394293,26.374511c7.631917,7.864689 20.327318,8.738543 30.967972,6.11698c1.174141,-0.238324 1.394293,-0.238324 2.49505,-0.63553c7.705301,-2.46268 14.750148,-5.48145 22.161913,-8.976867c2.935353,-1.429943 5.357019,-2.701004 8.07222,-4.051506c11.154341,-5.322567 28.472922,-15.649936 38.746656,-23.435183c10.200351,-7.626365 9.539896,-5.719773 9.246361,-15.491053c-0.073384,-4.210389 -0.220151,-8.500219 -0.293535,-12.710608c4.9901,-3.813182 13.429239,0.873854 17.318581,0.794413c4.916716,-0.158883 7.778685,-2.621563 11.007573,-5.878656c0.880606,-0.873854 1.467676,-1.271061 2.568434,-2.542122c2.568434,-3.018769 9.172977,-8.341336 9.61328,-10.962899c-2.201515,-2.065474 -7.264998,-2.621563 -10.56727,-3.415976l-11.007573,-2.542122c0.587071,-1.588826 4.916716,-4.051506 6.384392,-5.004802c4.329645,-3.018769 16.658127,-10.40681 19.446712,-13.822786c5.210251,-6.434745 12.622017,-28.042778 16.731511,-28.12222c3.595807,-0.158883 17.09843,4.528154 21.13454,5.958097c2.861969,1.032737 2.715201,0.953296 4.843332,-0.714972c1.320909,-1.032737 2.49505,-1.986032 3.742575,-3.018769c11.374492,-9.374073 21.794994,-18.98647 33.756557,-28.042778c6.237625,-4.766478 0.733838,-5.719773 -3.595807,-7.94413l-14.016309,-6.514186c-2.274898,-1.032737 -5.57717,-2.065474 -6.677928,-3.733741c1.027373,-1.82715 6.457776,-5.243126 6.971463,-6.355304c0.733838,-1.588826 -4.9901,-16.841555 -7.631917,-18.827588c-2.274898,-1.747709 -5.57717,0.317765 -9.319745,1.747709l-0.660454,-24.785685c-0.220151,-8.57966 0.513687,-12.790049 -6.164241,-9.135749c-12.842168,6.990834 -28.619689,14.537758 -40.214333,21.131385c-4.843332,2.780445 -4.403029,1.191619 -6.824695,5.719773c-2.715201,5.084243 -2.054747,4.766478 -3.815959,8.420778c-3.522423,-1.906591 -12.10833,-6.434745 -14.823531,-8.897425l4.696564,-25.341774zm-70.962153,188.355318c-3.155504,1.112178 -1.54106,5.799215 1.467676,4.92536c2.641817,-0.794413 1.761212,-6.11698 -1.467676,-4.92536zm-0.733838,-168.971642c9.61328,-3.336535 20.033783,2.542122 23.189287,13.187256c3.228888,10.565693 -2.054747,21.925798 -11.741411,25.341774c-9.61328,3.336535 -20.033783,-2.46268 -23.189287,-13.107814c-3.228888,-10.645134 2.054747,-22.00524 11.741411,-25.421215zm-94.078056,91.993023l-18.63949,-40.276738l6.237625,-5.799215l4.476413,14.140551l10.934189,-21.608033l11.080957,-2.701004l-17.171814,23.117418l25.464185,6.11698l-3.889342,11.04234l-23.336054,-15.332171l-2.568434,2.621563l18.125803,17.635968l-10.714038,11.04234zm28.106003,-20.019207l-11.007573,-42.103888l13.209087,-5.958097c2.861969,-1.350502 5.283635,-1.509385 6.971463,-1.429943c1.761212,0.158883 3.302272,0.794413 4.769948,2.144915c1.394293,1.271061 2.348282,2.939328 2.935353,4.92536c0.807222,2.542122 0.660454,4.92536 -0.366919,7.229158c-0.95399,2.303798 -3.008737,4.210389 -6.017473,5.799215c1.320909,0.158883 2.421666,0.476648 3.155504,0.873854c1.687828,0.794413 3.375656,1.986032 5.063484,3.495417l7.411766,6.593628l-4.916716,6.990834c-4.403029,-5.878656 -5.944089,-10.247927 -11.52126,-14.378875c-4.623181,-3.336535 -4.623181,-1.271061 -9.466513,0.397206l11.961563,18.827588l-12.181714,6.593628zm-1.981363,-29.154956c21.13454,-7.388041 11.007573,-19.542559 2.348282,-12.392843l-5.723938,4.687037l3.375656,7.705806zm32.142113,13.266697l-9.61328,-39.323443l24.290044,-7.785247l1.687828,5.560891l-21.648227,5.560891l5.283635,12.313401l17.612117,-9.532956l2.715201,7.070276l-19.373328,5.243126l7.11823,13.028373l12.401865,-9.850721l7.11823,5.640332l-27.592316,12.075077z" class="fil0"/>
    <path stroke="null" id="svg_2" d="m141.899325,242.503319c-4.957011,2.569 -1.402928,13.166123 4.676425,9.312623c4.39584,-2.676041 1.87057,-12.630915 -4.676425,-9.312623z" class="fil0"/>
    <polygon stroke="null" id="svg_3" points="191.59306480503614,222.39578247070312 195.274843141904,214.60548400878906 186.7278210801059,217.82054138183594 178.57526233800667,212.25599670410156 179.62720978124975,221.15919494628906 171.60613881238345,225.98182678222656 181.33664134803706,228.0841064453125 182.9145097126256,237.4818115234375 188.04275915560805,229.19703674316406 198.29921278419346,228.82598876953125 " class="fil1"/>
    <path stroke="null" id="svg_4" d="m165.44466,230.929853c-6.270587,2.368466 -3.135294,12.272963 3.135294,10.442784c5.225489,-1.614864 3.42032,-12.81125 -3.135294,-10.442784z" class="fil0"/>
    <line stroke="null" id="svg_5" y2="28.716277" x2="439.234822" y1="28.716277" x1="439.234822" class="fil2"/>
    <path stroke="null" id="svg_6" d="m150.344591,65.202313c7.119901,-2.476438 14.629934,1.507397 16.87319,9.044381c2.243257,7.536984 -1.755592,15.719996 -8.875493,18.304105c-7.022368,2.476438 -14.629934,-1.507397 -16.775657,-9.044381c-2.243257,-7.536984 1.755592,-15.719996 8.77796,-18.304105z" class="fil0"/>
   </g>
  </g>
 </g>
</svg>