<svg width="48" height="48" xmlns="http://www.w3.org/2000/svg">
 <defs>
  <style type="text/css">
   <![CDATA[
    .fil0 {fill:#31D850}
    .fil1 {fill:#FEFFFE}
   ]]>
  </style>
 </defs>
 <g>
  <title>background</title>
  <rect x="-1" y="-1" width="50" height="50" id="canvas_background" fill="none"/>
 </g>
 <g>
  <title>Layer 1</title>
  <g stroke="null" id="Слой_x0020_1">
   <metadata stroke="null" transform="translate(0,0.6060085296630859) translate(0.6059970855712891,0) translate(-0.2261962890625,0.5176849365234375) scale(0.6094469428062439,0.5818582773208618) translate(0.2261962890625,-0.5176849365234375) translate(-0.37115323543548584,0.8897260427474976) scale(0.8482239842414856,0.8862166404724121) translate(0.37115323543548584,-0.8897260427474976) translate(-0.43755772709846497,1.0039637088775635) scale(1.0331358909606934,1.0202724933624268) translate(0.43755772709846497,-1.0039637088775635) " id="CorelCorpID_0Corel-Layer"/>
   <g stroke="null" id="_2786260401232">
    <path stroke="null" class="fil0" d="m10.622029,37.367943c0,-0.822643 1.274091,-4.524538 1.274091,-5.758503c0.424697,-0.411322 0.424697,-0.822643 0.424697,-1.233965c-0.424697,-0.411322 -0.424697,-0.822643 -0.424697,-1.233965c-2.548182,-4.93586 -1.274091,-9.87172 1.698788,-13.573614c4.671668,-5.347181 14.015003,-6.581146 19.960762,-0.822643c2.123485,2.056609 4.24697,5.347181 4.24697,9.87172c-0.424697,2.879252 -1.274091,5.758503 -3.397576,7.815111c-3.397576,4.113217 -9.768032,5.758503 -15.289094,3.701895c-1.698788,-0.822643 -1.274091,-0.822643 -2.972879,-0.411322c-0.849394,0.411322 -1.698788,0.411322 -2.972879,0.822643c-0.849394,0.411322 -1.698788,0.411322 -2.548182,0.822643l0,0.000001zm-10.192729,-11.517006c0.849394,11.928328 11.891518,21.800048 25.481824,20.977404c12.316215,-0.822643 22.508945,-11.105685 21.65955,-24.267978c-0.849394,-12.33965 -11.466821,-22.211369 -25.057127,-21.388726c-12.740912,0.822643 -22.933642,11.517006 -22.084248,24.6793l0.000001,0z" id="svg_1"/>
    <path stroke="null" class="fil0" d="m19.11597,17.624503c1.698788,-0.411322 1.698788,0.411322 2.123485,1.645287c0.424697,0.822643 0.849394,1.645287 0.424697,2.46793c-1.274091,0.822643 -1.274091,1.233965 -0.424697,2.46793c0.849394,0.822643 1.274091,1.233965 1.698788,1.645287c0.424697,0.411322 2.123485,1.233965 2.548182,1.645287c0.849394,0 1.698788,-1.645287 2.123485,-1.645287c0.424697,0 2.123485,0.822643 2.548182,1.233965c0.424697,0 0.849394,0 0.849394,0.822643c0,0.411322 0,1.233965 -0.424697,1.233965c-0.424697,0.822643 -1.274091,1.233965 -2.548182,1.645287c-0.849394,0 -2.123485,-0.411322 -2.972879,-0.822643c-0.849394,-0.411322 -1.698788,-0.822643 -2.548182,-1.233965c-1.698788,-1.233965 -4.24697,-3.701895 -5.096365,-6.169825c-0.849394,-2.056609 0,-4.524538 1.698788,-4.93586l-0.000001,0.000001zm-5.521062,16.452866l3.822273,-0.822643c0.424697,0 0.424697,-0.411322 0.849394,0c1.274091,0.822643 2.972879,1.233965 4.671668,1.645287c3.397576,0.411322 5.945759,-0.822643 8.493941,-2.879252c0.424697,0 0.424697,-0.411322 0.849394,-0.822643c0.424697,-0.411322 1.274091,-1.645287 1.698788,-2.46793c0.849394,-1.233965 1.274091,-2.879252 1.274091,-4.524538c0.424697,-3.290573 -1.274091,-6.169825 -3.397576,-7.815111c-4.671668,-4.524538 -12.316215,-4.113217 -16.138489,0.411322c-2.972879,3.701895 -3.822273,8.637755 -1.274091,12.750971c0.424697,0.822643 0.424697,0.822643 0,2.056609c-0.424697,0.822643 -0.424697,1.645287 -0.849394,2.46793l0,-0.000001z" id="svg_2"/>
    <path stroke="null" class="fil1" d="m13.594908,34.07737c0.424697,-0.822643 0.424697,-1.645287 0.849394,-2.46793c0.424697,-1.233965 0.424697,-1.233965 0,-2.056609c-2.548182,-4.113217 -1.698788,-9.049077 1.274091,-12.750971c3.822273,-4.524538 11.466821,-4.93586 16.138489,-0.411322c2.123485,1.645287 3.822273,4.524538 3.397576,7.815111c0,1.645287 -0.424697,3.290573 -1.274091,4.524538c-0.424697,0.822643 -1.274091,2.056609 -1.698788,2.46793c-0.424697,0.411322 -0.424697,0.822643 -0.849394,0.822643c-2.548182,2.056609 -5.096365,3.290573 -8.493941,2.879252c-1.698788,-0.411322 -3.397576,-0.822643 -4.671668,-1.645287c-0.424697,-0.411322 -0.424697,0 -0.849394,0l-3.822273,0.822643l0,0.000001zm-2.972879,3.290573c0.849394,-0.411322 1.698788,-0.411322 2.548182,-0.822643c1.274091,-0.411322 2.123485,-0.411322 2.972879,-0.822643c1.698788,-0.411322 1.274091,-0.411322 2.972879,0.411322c5.521062,2.056609 11.891518,0.411322 15.289094,-3.701895c2.123485,-2.056609 2.972879,-4.93586 3.397576,-7.815111c0,-4.524538 -2.123485,-7.815111 -4.24697,-9.87172c-5.945759,-5.758503 -15.289094,-4.524538 -19.960762,0.822643c-2.972879,3.701895 -4.24697,8.637755 -1.698788,13.573614c0,0.411322 0,0.822643 0.424697,1.233965c0,0.411322 0,0.822643 -0.424697,1.233965c0,1.233965 -1.274091,4.93586 -1.274091,5.758503l0,-0.000001z" id="svg_3"/>
    <path stroke="null" class="fil1" d="m19.11597,17.624503c-1.698788,0.411322 -2.548182,2.879252 -1.698788,4.93586c0.849394,2.46793 3.397576,4.93586 5.096365,6.169825c0.849394,0.411322 1.698788,0.822643 2.548182,1.233965c0.849394,0.411322 2.123485,0.822643 2.972879,0.822643c1.274091,-0.411322 2.123485,-0.822643 2.548182,-1.645287c0.424697,0 0.424697,-0.822643 0.424697,-1.233965c0,-0.822643 -0.424697,-0.822643 -0.849394,-0.822643c-0.424697,-0.411322 -2.123485,-1.233965 -2.548182,-1.233965c-0.424697,0 -1.274091,1.645287 -2.123485,1.645287c-0.424697,-0.411322 -2.123485,-1.233965 -2.548182,-1.645287c-0.424697,-0.411322 -0.849394,-0.822643 -1.698788,-1.645287c-0.849394,-1.233965 -0.849394,-1.645287 0.424697,-2.46793c0.424697,-0.822643 0,-1.645287 -0.424697,-2.46793c-0.424697,-1.233965 -0.424697,-2.056609 -2.123485,-1.645287l0.000001,-0.000001z" id="svg_4"/>
   </g>
  </g>
 </g>
</svg>