<?xml version="1.0" encoding="UTF-8"?>
<!DOCTYPE svg PUBLIC "-//W3C//DTD SVG 1.1//EN" "http://www.w3.org/Graphics/SVG/1.1/DTD/svg11.dtd">
<!-- Creator: CorelDRAW X8 -->
<svg xmlns="http://www.w3.org/2000/svg" xml:space="preserve" width="15.4774mm" height="17.154mm" version="1.1" style="shape-rendering:geometricPrecision; text-rendering:geometricPrecision; image-rendering:optimizeQuality; fill-rule:evenodd; clip-rule:evenodd"
viewBox="0 0 145 161"
 xmlns:xlink="http://www.w3.org/1999/xlink">
 <defs>
  <style type="text/css">
   <![CDATA[
    .fil0 {fill:#B0CB1F}
   ]]>
  </style>
 </defs>
 <g id="Слой_x0020_1">
  <metadata id="CorelCorpID_0Corel-Layer"/>
  <g id="_2786615971568">
   <path class="fil0" d="M77 135c-1,-11 1,-21 6,-28 8,-9 14,-10 21,-14 0,-4 0,-10 -2,-13 -1,-4 -4,-8 -6,-10 -6,-4 -16,-6 -25,-6 -3,7 -14,44 -18,47 -5,-1 -5,-5 -7,-10 -1,-4 -3,-8 -4,-13 -2,-4 -7,-21 -10,-24 -13,-1 -25,5 -30,15 -3,8 -2,31 -2,42 0,6 1,12 8,14l69 0z"/>
   <path class="fil0" d="M57 0l-10 0c-6,3 -11,3 -16,10 -3,6 -6,11 -5,19 3,32 50,32 52,0 2,-21 -16,-26 -21,-29z"/>
   <path class="fil0" d="M51 95c2,-1 2,1 4,-7 2,-4 1,-6 1,-10 -2,-13 3,-9 2,-17 -2,-1 -9,-2 -12,0 -3,3 3,7 3,10 1,3 -1,9 -1,12 0,4 2,8 3,12z"/>
   <path class="fil0" d="M114 100c17,0 31,13 31,30 0,17 -14,31 -31,31 -16,0 -30,-14 -30,-31 0,-17 14,-30 30,-30zm-4 32c3,-4 16,-18 21,-17 11,3 -8,19 -11,21 -11,11 -9,12 -20,1 -1,-1 -10,-9 -2,-12 6,-1 8,5 12,7z"/>
  </g>
 </g>
</svg>
