<?xml version="1.0" encoding="UTF-8"?>
<!DOCTYPE svg PUBLIC "-//W3C//DTD SVG 1.1//EN" "http://www.w3.org/Graphics/SVG/1.1/DTD/svg11.dtd">
<!-- Creator: CorelDRAW X8 -->
<svg xmlns="http://www.w3.org/2000/svg" xml:space="preserve" width="19.3575mm" height="12.9193mm" version="1.1" style="shape-rendering:geometricPrecision; text-rendering:geometricPrecision; image-rendering:optimizeQuality; fill-rule:evenodd; clip-rule:evenodd"
viewBox="0 0 249 166"
 xmlns:xlink="http://www.w3.org/1999/xlink">
 <defs>
  <style type="text/css">
   <![CDATA[
    .fil0 {fill:#2B2A29}
   ]]>
  </style>
 </defs>
 <g id="Слой_x0020_1">
  <metadata id="CorelCorpID_0Corel-Layer"/>
  <path class="fil0" d="M25 152c1,-1 4,-3 5,-4l8 -7c0,0 1,0 1,0l53 -45c1,-1 4,-3 5,-4l23 19c1,1 3,2 4,1 2,0 4,0 5,-1l22 -19c1,1 10,8 12,9 0,1 1,2 2,2l36 30c1,1 21,18 22,19l-198 0zm141 -72c0,-1 0,-1 1,-1l4 -4c2,-1 3,-3 5,-4l8 -7c3,-2 15,-12 19,-16l6 -5c0,0 0,0 1,-1 1,0 1,-1 2,-2 1,0 1,0 1,-1l21 -17c0,0 0,0 1,0l0 121c-1,0 -2,-1 -3,-1 -2,-3 -8,-7 -11,-10l-33 -27c-1,-1 -1,-1 -1,-1l-4 -3c0,-1 0,-1 -1,-1l-17 -14c-1,-1 -2,-2 -3,-3l4 -3zm-152 -58c1,0 1,0 1,1l24 20c1,0 1,0 1,1l47 39c-1,1 -1,0 -1,1l-5 4c0,0 -1,0 -1,1 -7,5 -15,12 -21,17l-3 3c-1,0 -1,0 -1,1l-20 16c-4,3 -10,9 -14,12 -2,1 -6,5 -7,5l0 -121zm90 58c0,-1 -1,-1 -1,-2l-48 -40c0,0 -1,0 -1,-1 -1,0 -1,-1 -2,-1 -5,-4 -13,-12 -19,-17 -1,0 -1,-1 -2,-1 -1,-1 -1,-1 -2,-1 0,-1 -2,-2 -2,-3l195 0c0,1 -2,2 -3,3 0,0 0,0 -1,0l-23 20c-1,1 -1,1 -1,1 -1,0 -1,0 -1,1l-5 4c-2,2 -6,5 -9,7 0,1 -1,1 -1,2l-39 32c-1,1 -2,2 -3,2 0,1 -2,2 -3,3 0,1 -2,2 -3,2 -1,1 -2,2 -3,3l-3 3 -20 -17zm-85 -80c-8,1 -13,5 -16,10 -4,7 -3,15 -3,23l0 104c0,9 0,15 5,21 5,6 10,8 18,8l194 0c4,0 9,0 13,0 7,-1 13,-6 16,-10 4,-7 2,-15 2,-23 1,-18 1,-35 0,-52 0,-17 0,-35 0,-52 0,-9 1,-15 -4,-21 -5,-6 -11,-8 -18,-8l-194 0c-4,0 -9,0 -13,0z"/>
 </g>
</svg>
