<?xml version="1.0" encoding="UTF-8"?>
<!DOCTYPE svg PUBLIC "-//W3C//DTD SVG 1.1//EN" "http://www.w3.org/Graphics/SVG/1.1/DTD/svg11.dtd">
<!-- Creator: CorelDRAW X8 -->
<svg xmlns="http://www.w3.org/2000/svg" xml:space="preserve" width="21.9799mm" height="16.6891mm" version="1.1" style="shape-rendering:geometricPrecision; text-rendering:geometricPrecision; image-rendering:optimizeQuality; fill-rule:evenodd; clip-rule:evenodd"
viewBox="0 0 348 264"
 xmlns:xlink="http://www.w3.org/1999/xlink">
 <defs>
  <style type="text/css">
   <![CDATA[
    .fil0 {fill:#B0CB1F}
   ]]>
  </style>
 </defs>
 <g id="Слой_x0020_1">
  <metadata id="CorelCorpID_0Corel-Layer"/>
  <g id="_2786475710992">
   <path class="fil0" d="M45 141c0,7 -1,50 1,53 3,2 20,1 25,1l108 0c6,0 23,2 25,-2 3,-2 1,-112 1,-133 0,-21 -17,-16 -37,-16 -10,0 -19,0 -28,0 4,17 6,27 1,45 -7,25 -27,44 -51,52 -13,4 -32,5 -45,0z"/>
   <path class="fil0" d="M238 132c0,-8 0,-19 0,-26 0,-12 0,-10 17,-10 30,0 21,-4 36,16 19,27 20,24 -30,24 -5,0 -9,0 -13,0 -5,0 -9,0 -10,-4zm-20 -50l0 126c-21,0 -48,1 -69,0 3,5 9,7 12,23l73 0c3,-11 6,-15 12,-22 12,-13 36,-12 49,0 6,6 10,11 12,22l32 0c10,0 9,-2 9,-15 0,-11 -7,-7 -16,-8 1,-16 0,-34 0,-50 0,-23 -2,-24 -12,-39 -6,-10 -13,-20 -20,-30 -14,-20 -30,-17 -54,-17 -13,0 -28,-3 -28,10z"/>
   <path class="fil0" d="M119 76c-5,30 -32,48 -60,44 -25,-5 -48,-29 -43,-60 4,-26 28,-48 60,-44 25,4 49,29 43,60zm-59 -75c-19,3 -32,9 -44,23 -11,13 -18,30 -16,52 4,34 36,64 75,59 34,-4 65,-35 60,-75 -6,-39 -43,-65 -75,-59z"/>
   <path class="fil0" d="M267 223c8,-2 15,3 17,10 2,9 -4,15 -10,17 -17,4 -25,-22 -7,-27zm1 -14c-8,1 -14,4 -18,9 -17,21 0,49 24,46 14,-2 26,-15 24,-31 -1,-14 -14,-26 -30,-24z"/>
   <path class="fil0" d="M122 223c8,-3 15,3 16,10 3,8 -3,15 -9,17 -17,4 -26,-21 -7,-27zm0 -14c-14,2 -26,13 -24,31 1,14 14,26 31,24 14,-2 26,-15 24,-31 -2,-14 -15,-26 -31,-24z"/>
   <path class="fil0" d="M35 230c6,2 44,1 54,1 2,-14 8,-17 12,-23 -5,0 -62,-1 -65,1 -4,3 -2,17 -1,21z"/>
   <path class="fil0" d="M59 34c0,39 -3,36 12,41 3,1 16,4 18,3 6,-1 7,-9 1,-12 -3,-1 -14,-4 -18,-4l0 -19c0,-5 2,-13 -3,-16 -5,-3 -10,1 -10,7z"/>
  </g>
 </g>
</svg>
