<?xml version="1.0" encoding="UTF-8"?>
<!DOCTYPE svg PUBLIC "-//W3C//DTD SVG 1.1//EN" "http://www.w3.org/Graphics/SVG/1.1/DTD/svg11.dtd">
<!-- Creator: CorelDRAW X8 -->
<svg xmlns="http://www.w3.org/2000/svg" xml:space="preserve" width="14.0005mm" height="14.7929mm" version="1.1" style="shape-rendering:geometricPrecision; text-rendering:geometricPrecision; image-rendering:optimizeQuality; fill-rule:evenodd; clip-rule:evenodd"
viewBox="0 0 108 114"
 xmlns:xlink="http://www.w3.org/1999/xlink">
 <defs>
  <style type="text/css">
   <![CDATA[
    .fil0 {fill:#2B2A29}
   ]]>
  </style>
 </defs>
 <g id="Слой_x0020_1">
  <metadata id="CorelCorpID_0Corel-Layer"/>
  <path class="fil0" d="M106 94c0,-1 0,-2 0,-3 -1,-1 -1,-2 -2,-2 0,-1 0,-1 0,-1 0,0 0,0 -1,0 0,0 0,-1 0,-1 -1,-1 -2,-1 -2,-2 0,0 0,0 0,0 -1,-1 -2,-1 -2,-2l-3 -2c0,0 0,0 0,0 -2,-2 -5,-4 -7,-5 0,-1 0,-1 0,-1 -6,-3 -11,-2 -16,1l-2 2c-2,2 -4,6 -9,7 -4,0 -8,-2 -11,-5l-3 -2c-2,-2 -5,-5 -7,-7l-6 -8c0,0 0,0 -1,-1l-1 -2c-1,-1 -2,-2 -2,-4l-1 0c0,-1 0,-1 0,-1 -3,-5 -4,-9 0,-14l1 0c0,-1 1,-1 1,-1l2 -2c0,0 1,0 1,0 0,-1 1,-1 1,-1 1,-1 2,-2 3,-2 1,-1 2,-2 2,-3 3,-6 -1,-15 -4,-20 -1,0 -1,-1 -1,-1l-1 -2c-1,0 -1,0 -1,0 0,-1 0,-1 0,-1l-3 -4c-1,0 -1,0 -1,-1 -1,-1 -1,-1 -2,-2 -4,-2 -9,0 -12,2 -1,1 -3,2 -4,3 0,1 -1,2 -2,3l-4 5c0,0 0,0 0,1 -2,3 -4,7 -5,11 -2,9 -1,18 2,26 1,2 2,4 3,6l3 6c0,1 0,1 0,2 1,0 1,1 2,2l8 11c1,1 0,0 1,0l4 5c0,0 0,1 1,1 0,1 0,0 0,1 0,0 0,0 1,0 0,1 1,2 1,2l3 3c1,1 1,1 1,1 0,1 0,1 1,1 0,0 0,0 0,0 1,1 2,3 3,4l7 5c1,1 2,1 3,2 0,0 1,1 2,1l3 2c0,0 0,0 0,0 6,3 14,7 21,7 3,1 6,1 9,0 0,0 0,0 1,0l2 -1c2,0 4,-1 6,-2 1,0 2,0 2,-1l6 -4c0,0 0,0 0,0l4 -3c0,0 0,0 1,-1l3 -3c1,-2 1,-3 1,-5z"/>
  <path class="fil0" d="M54 21c1,0 7,1 10,1l2 1c3,1 7,2 10,3 0,1 1,1 2,1l3 3c2,1 6,5 7,6l2 2c1,2 3,6 4,8 2,4 4,12 4,17l10 0 0 -6c-1,-3 -2,-8 -3,-11 -1,-4 -2,-5 -4,-9l-6 -9c-1,0 -3,-3 -4,-4l-2 -1c-2,-2 -7,-5 -8,-6 -7,-3 -14,-5 -21,-6 -1,0 -5,-1 -6,0l0 10z"/>
  <path class="fil0" d="M54 42c4,0 7,1 10,2 2,1 7,4 8,6 0,0 0,0 0,0 3,4 5,9 5,14l10 0c0,-7 -1,-10 -4,-16 -1,-3 -2,-3 -3,-5 -1,0 -3,-2 -3,-3l-3 -2c-2,-1 -4,-3 -6,-3 -3,-2 -10,-4 -14,-3l0 10z"/>
 </g>
</svg>
