<?xml version="1.0" encoding="UTF-8"?>
<!DOCTYPE svg PUBLIC "-//W3C//DTD SVG 1.1//EN" "http://www.w3.org/Graphics/SVG/1.1/DTD/svg11.dtd">
<!-- Creator: CorelDRAW X8 -->
<svg xmlns="http://www.w3.org/2000/svg" xml:space="preserve" width="13.6538mm" height="17.1972mm" version="1.1" style="shape-rendering:geometricPrecision; text-rendering:geometricPrecision; image-rendering:optimizeQuality; fill-rule:evenodd; clip-rule:evenodd"
viewBox="0 0 112 141"
 xmlns:xlink="http://www.w3.org/1999/xlink">
 <defs>
  <style type="text/css">
   <![CDATA[
    .fil0 {fill:#B0CB1F}
   ]]>
  </style>
 </defs>
 <g id="Слой_x0020_1">
  <metadata id="CorelCorpID_0Corel-Layer"/>
  <g id="_2786477359424">
   <path class="fil0" d="M19 59l-19 0c0,3 2,10 3,13 1,4 4,8 6,11 3,3 5,6 9,8 1,2 7,7 9,8l0 8 17 0 0 -19c-4,-1 -5,-1 -7,-3 -6,-6 -2,-16 7,-17l0 -9 -15 0c0,-3 1,-5 0,-7 -2,-4 -7,-4 -9,0 -1,1 0,4 -1,7z"/>
   <path class="fil0" d="M63 54l0 5c-3,0 -10,0 -14,0 0,4 0,9 0,14l-5 0c-6,0 -7,8 -1,10 1,0 4,0 6,0 0,5 0,16 0,21l0 3 12 0 0 -8 9 -8c7,-6 11,-10 15,-19 1,-3 3,-10 3,-13 -5,-1 -10,0 -15,0 0,-4 1,-8 -3,-10 -3,-1 -7,1 -7,5z"/>
   <path class="fil0" d="M73 6l0 6c-4,0 -7,-1 -9,3 -2,4 1,7 5,7l4 0 0 12 10 0c0,-9 11,-12 16,-7 2,2 3,4 3,7 1,0 6,0 7,0 4,0 3,-2 3,-7 0,-3 0,-25 0,-26 -1,-1 -4,-1 -6,-1l-28 0c-6,0 -5,1 -5,6z"/>
   <path class="fil0" d="M0 54c2,0 5,0 7,0l7 0c1,0 0,0 1,-1 0,0 -1,-3 2,-6 4,-4 10,-4 14,0 3,3 3,4 3,7l10 0 0 -8c-2,0 -3,0 -4,0 -10,-5 -7,-19 4,-19l0 -12c-13,0 -23,4 -30,11 -6,5 -10,12 -12,19 -1,2 -2,6 -2,9z"/>
   <path class="fil0" d="M22 115c1,2 2,2 4,2l37 0c2,0 3,-1 3,-3 -1,-2 -2,-2 -4,-2 -3,0 -5,0 -7,0l-30 0c-1,0 -2,0 -2,1 -1,0 -1,1 -1,2z"/>
   <path class="fil0" d="M44 141c6,0 11,-4 12,-9l-24 0c1,5 6,9 12,9z"/>
   <path class="fil0" d="M27 125c1,3 6,2 8,2 3,0 23,0 24,0 1,-1 2,-2 2,-3 0,-2 -2,-2 -3,-2l-25 0c-2,0 -7,-1 -6,3z"/>
  </g>
 </g>
</svg>
