<?xml version="1.0" encoding="UTF-8"?>
<!DOCTYPE svg PUBLIC "-//W3C//DTD SVG 1.1//EN" "http://www.w3.org/Graphics/SVG/1.1/DTD/svg11.dtd">
<!-- Creator: CorelDRAW X8 -->
<svg xmlns="http://www.w3.org/2000/svg" xml:space="preserve" width="20.5032mm" height="20.4694mm" version="1.1" style="shape-rendering:geometricPrecision; text-rendering:geometricPrecision; image-rendering:optimizeQuality; fill-rule:evenodd; clip-rule:evenodd"
viewBox="0 0 250 250"
 xmlns:xlink="http://www.w3.org/1999/xlink">
 <defs>
  <style type="text/css">
   <![CDATA[
    .fil0 {fill:#B0CB1F}
   ]]>
  </style>
 </defs>
 <g id="Слой_x0020_1">
  <metadata id="CorelCorpID_0Corel-Layer"/>
  <g id="_2786477412960">
   <path class="fil0" d="M124 80c-2,1 -4,5 -5,7l-8 16c-1,3 -2,2 -9,3 -3,0 -7,1 -10,1 -2,1 -8,1 -9,3 -3,3 1,5 2,7l15 15c2,1 1,1 1,4 -1,7 -3,14 -4,20 -1,6 3,7 6,6 6,-3 13,-8 19,-11 4,-2 3,-1 12,3 2,2 5,3 8,4 2,1 6,4 8,4 4,0 3,-5 2,-8 -1,-7 -2,-14 -3,-20 0,-2 1,-3 2,-4l15 -14c1,-1 2,-2 2,-4 0,-2 -1,-3 -2,-3 -2,-1 -17,-3 -21,-3 -6,-1 -5,0 -7,-5l-8 -16c-1,-2 -2,-7 -6,-5z"/>
   <path class="fil0" d="M122 247c0,2 3,4 5,2 2,-1 2,-4 2,-7 0,-6 0,-49 0,-51 -1,-2 -4,-3 -6,-2 -2,2 -1,4 -1,7 0,8 -1,49 0,51z"/>
   <path class="fil0" d="M81 173c2,-4 -2,-6 -5,-4 -2,2 -4,4 -6,6 -4,4 -33,32 -34,34 -1,4 3,6 6,4 1,-1 3,-3 5,-5 7,-7 16,-16 23,-23 2,-2 4,-4 6,-6 1,-1 5,-5 5,-6z"/>
   <path class="fil0" d="M210 36c-2,1 -30,29 -34,33 -2,2 -5,4 -6,6 -2,2 0,7 4,6 1,-1 30,-30 34,-34 2,-2 4,-4 6,-6 2,-2 -1,-7 -4,-5z"/>
   <path class="fil0" d="M121 5l0 46c0,5 -1,10 4,10 5,0 4,-8 4,-15l0 -41c0,-3 -1,-5 -4,-5 -3,0 -4,2 -4,5z"/>
   <path class="fil0" d="M37 36c-1,1 -2,2 -1,4 0,2 18,18 19,20l17 17c2,1 4,5 8,3 1,0 1,-2 1,-3 0,-2 -2,-3 -2,-4l-29 -28c-2,-2 -3,-3 -5,-5 -2,-2 -5,-6 -8,-4z"/>
   <path class="fil0" d="M5 128l46 0c5,0 10,1 10,-3 0,-5 -8,-4 -15,-4l-41 0c-7,0 -7,7 0,7z"/>
   <path class="fil0" d="M194 128l51 0c6,0 6,-4 4,-5 -1,-2 -6,-2 -9,-2l-46 0c-3,0 -5,1 -5,4 0,3 2,3 5,3z"/>
   <path class="fil0" d="M170 174c0,1 9,10 11,11 3,4 26,27 28,28 3,2 6,0 5,-4 0,-1 -10,-10 -11,-11l-28 -28c-2,-2 -6,1 -5,4z"/>
   <path class="fil0" d="M63 145c-6,3 -12,7 -18,10l-9 4c-3,3 -1,9 4,7 3,-1 26,-14 27,-14 3,-3 0,-8 -4,-7z"/>
   <path class="fil0" d="M155 204c1,3 3,7 4,9 3,4 9,2 8,-2 0,-1 -4,-8 -5,-9 -2,-4 -3,-6 -5,-9l-4 -9c-3,-4 -9,-2 -8,2l10 18z"/>
   <path class="fil0" d="M87 34c-5,2 -2,6 -1,9l10 18c1,3 3,8 7,6 2,0 3,-2 2,-4l-7 -13c-1,-3 -3,-7 -5,-9 -1,-3 -2,-8 -6,-7z"/>
   <path class="fil0" d="M211 84l-27 14c-3,2 -2,8 3,7l27 -14c4,-3 1,-9 -3,-7z"/>
   <path class="fil0" d="M104 186c1,-3 -4,-6 -7,-2l-9 18c-1,1 -4,7 -5,9 -1,4 5,6 7,2 2,-2 3,-6 5,-9 1,-2 8,-16 9,-18z"/>
   <path class="fil0" d="M161 35c-2,0 -2,1 -3,3l-7 14c-2,2 -3,5 -5,8 0,2 -2,3 -1,5 1,2 2,3 5,3 1,-1 2,-3 3,-4l7 -14c1,-3 3,-6 4,-8 1,-2 2,-4 1,-6 0,-1 -2,-2 -4,-1z"/>
   <path class="fil0" d="M37 83c-2,1 -3,2 -2,5 0,1 2,2 3,3l22 11c2,1 3,2 5,2 2,-1 3,-2 3,-5 0,-1 -2,-2 -4,-3l-22 -11c-1,-1 -3,-2 -5,-2z"/>
   <path class="fil0" d="M185 145c-2,0 -3,1 -3,4 1,2 2,2 4,3l18 9c2,2 7,5 9,4 2,0 3,-2 2,-4 0,-2 -1,-3 -3,-3 -3,-2 -6,-3 -9,-5l-13 -7c-2,-1 -3,-2 -5,-1z"/>
  </g>
 </g>
</svg>
