<?xml version="1.0" encoding="UTF-8"?>
<!DOCTYPE svg PUBLIC "-//W3C//DTD SVG 1.1//EN" "http://www.w3.org/Graphics/SVG/1.1/DTD/svg11.dtd">
<!-- Creator: CorelDRAW X8 -->
<svg xmlns="http://www.w3.org/2000/svg" xml:space="preserve" width="14mm" height="13.9894mm" version="1.1" style="shape-rendering:geometricPrecision; text-rendering:geometricPrecision; image-rendering:optimizeQuality; fill-rule:evenodd; clip-rule:evenodd"
viewBox="0 0 111 111"
 xmlns:xlink="http://www.w3.org/1999/xlink">
 <defs>
  <style type="text/css">
   <![CDATA[
    .fil0 {fill:#31D850}
    .fil1 {fill:#FEFFFE}
   ]]>
  </style>
 </defs>
 <g id="Слой_x0020_1">
  <metadata id="CorelCorpID_0Corel-Layer"/>
  <g id="_2786260401232">
   <path class="fil0" d="M24 88c0,-2 3,-11 3,-14 1,-1 1,-2 1,-3 -1,-1 -1,-2 -1,-3 -6,-12 -3,-24 4,-33 11,-13 33,-16 47,-2 5,5 10,13 10,24 -1,7 -3,14 -8,19 -8,10 -23,14 -36,9 -4,-2 -3,-2 -7,-1 -2,1 -4,1 -7,2 -2,1 -4,1 -6,2zm-24 -28c2,29 28,53 60,51 29,-2 53,-27 51,-59 -2,-30 -27,-54 -59,-52 -30,2 -54,28 -52,60z"/>
   <path class="fil0" d="M44 40c4,-1 4,1 5,4 1,2 2,4 1,6 -3,2 -3,3 -1,6 2,2 3,3 4,4 1,1 5,3 6,4 2,0 4,-4 5,-4 1,0 5,2 6,3 1,0 2,0 2,2 0,1 0,3 -1,3 -1,2 -3,3 -6,4 -2,0 -5,-1 -7,-2 -2,-1 -4,-2 -6,-3 -4,-3 -10,-9 -12,-15 -2,-5 0,-11 4,-12zm-13 40l9 -2c1,0 1,-1 2,0 3,2 7,3 11,4 8,1 14,-2 20,-7 1,0 1,-1 2,-2 1,-1 3,-4 4,-6 2,-3 3,-7 3,-11 1,-8 -3,-15 -8,-19 -11,-11 -29,-10 -38,1 -7,9 -9,21 -3,31 1,2 1,2 0,5 -1,2 -1,4 -2,6z"/>
   <path class="fil1" d="M31 80c1,-2 1,-4 2,-6 1,-3 1,-3 0,-5 -6,-10 -4,-22 3,-31 9,-11 27,-12 38,-1 5,4 9,11 8,19 0,4 -1,8 -3,11 -1,2 -3,5 -4,6 -1,1 -1,2 -2,2 -6,5 -12,8 -20,7 -4,-1 -8,-2 -11,-4 -1,-1 -1,0 -2,0l-9 2zm-7 8c2,-1 4,-1 6,-2 3,-1 5,-1 7,-2 4,-1 3,-1 7,1 13,5 28,1 36,-9 5,-5 7,-12 8,-19 0,-11 -5,-19 -10,-24 -14,-14 -36,-11 -47,2 -7,9 -10,21 -4,33 0,1 0,2 1,3 0,1 0,2 -1,3 0,3 -3,12 -3,14z"/>
   <path class="fil1" d="M44 40c-4,1 -6,7 -4,12 2,6 8,12 12,15 2,1 4,2 6,3 2,1 5,2 7,2 3,-1 5,-2 6,-4 1,0 1,-2 1,-3 0,-2 -1,-2 -2,-2 -1,-1 -5,-3 -6,-3 -1,0 -3,4 -5,4 -1,-1 -5,-3 -6,-4 -1,-1 -2,-2 -4,-4 -2,-3 -2,-4 1,-6 1,-2 0,-4 -1,-6 -1,-3 -1,-5 -5,-4z"/>
  </g>
 </g>
</svg>
