<?xml version="1.0" encoding="UTF-8"?>
<!DOCTYPE svg PUBLIC "-//W3C//DTD SVG 1.1//EN" "http://www.w3.org/Graphics/SVG/1.1/DTD/svg11.dtd">
<!-- Creator: CorelDRAW X8 -->
<svg xmlns="http://www.w3.org/2000/svg" xml:space="preserve" width="17.0589mm" height="16.6893mm" version="1.1" style="shape-rendering:geometricPrecision; text-rendering:geometricPrecision; image-rendering:optimizeQuality; fill-rule:evenodd; clip-rule:evenodd"
viewBox="0 0 176 173"
 xmlns:xlink="http://www.w3.org/1999/xlink">
 <defs>
  <style type="text/css">
   <![CDATA[
    .fil0 {fill:#B0CB1F}
   ]]>
  </style>
 </defs>
 <g id="Слой_x0020_1">
  <metadata id="CorelCorpID_0Corel-Layer"/>
  <g id="_2786814471728">
   <path class="fil0" d="M164 150c0,-6 0,-12 0,-18 0,-12 0,-24 0,-36l0 -54c0,-5 -1,-4 4,-4 3,0 6,0 7,-2 4,-4 -1,-9 -4,-12l-15 -20c-1,-1 -3,-3 -5,-4 -6,-1 -9,3 -11,7 -2,1 -3,3 -4,5l-12 15c-1,1 -3,3 -3,6 0,2 2,4 4,5 5,1 8,-1 9,1l0 119c0,5 -1,11 6,14 3,1 11,1 14,0 12,0 10,-14 10,-22z"/>
   <path class="fil0" d="M89 164c1,5 5,8 10,8 3,1 6,0 9,0 3,0 5,0 7,-2 5,-3 4,-7 4,-14 0,-7 0,-89 0,-91 -1,-5 -4,-8 -10,-8 -3,0 -6,0 -9,0 -3,0 -5,0 -7,2 -5,3 -4,7 -4,14l0 55c0,6 0,12 0,18 0,3 0,17 0,18z"/>
   <path class="fil0" d="M45 163c0,4 3,8 6,9 3,1 12,1 15,0 4,0 7,-3 9,-6 1,-3 0,-10 0,-14l0 -45c0,-5 0,-11 0,-15 0,-4 -3,-7 -6,-8 -3,-1 -11,-1 -15,-1 -4,0 -7,4 -8,6 -2,3 -1,11 -1,15l0 59z"/>
   <path class="fil0" d="M30 163c1,-2 0,-31 0,-36 0,-7 2,-15 -5,-19 -3,-2 -6,-1 -10,-1 -4,0 -7,-1 -10,1 -2,2 -4,4 -5,8 0,3 0,9 0,12 0,4 0,34 0,36 1,3 3,5 5,7 3,2 6,1 10,1 5,0 7,1 11,-1 2,-2 3,-4 4,-8z"/>
  </g>
 </g>
</svg>
