<?xml version="1.0" encoding="UTF-8"?>
<!DOCTYPE svg PUBLIC "-//W3C//DTD SVG 1.1//EN" "http://www.w3.org/Graphics/SVG/1.1/DTD/svg11.dtd">
<!-- Creator: CorelDRAW X8 -->
<svg xmlns="http://www.w3.org/2000/svg" xml:space="preserve" width="14mm" height="14mm" version="1.1" style="shape-rendering:geometricPrecision; text-rendering:geometricPrecision; image-rendering:optimizeQuality; fill-rule:evenodd; clip-rule:evenodd"
viewBox="0 0 105 105"
 xmlns:xlink="http://www.w3.org/1999/xlink">
 <defs>
  <style type="text/css">
   <![CDATA[
    .fil0 {fill:#26A4E3}
    .fil1 {fill:#FEFEFE}
   ]]>
  </style>
 </defs>
 <g id="Слой_x0020_1">
  <metadata id="CorelCorpID_0Corel-Layer"/>
  <g id="_2786033081088">
   <path class="fil0" d="M62 43c-1,0 -2,1 -3,2l-7 5c-4,2 -7,4 -11,7 -5,3 -6,4 -13,2 -2,-1 -4,-1 -6,-2 -1,-1 -2,-1 -2,-3 0,-1 6,-3 8,-4 12,-6 24,-11 37,-16 2,-1 4,-1 6,-2 3,-1 5,-1 6,2 0,4 -5,33 -6,38 -1,2 -1,5 -3,6 -2,2 -5,0 -6,-1l-5 -4c-1,0 -2,-1 -3,-1 -1,-1 -2,-2 -2,-2 -1,-1 -2,-1 -3,-2 -1,-1 -4,-2 -5,-4 0,-1 1,-2 2,-3l11 -11c0,0 1,0 1,-1l3 -3c1,-1 2,-1 1,-3zm-62 6l0 6c0,0 0,4 1,5 0,2 0,4 1,5 2,10 7,18 13,24 7,8 18,13 29,15 1,0 5,0 5,1l7 0c0,-1 4,-1 5,-1 2,0 4,-1 5,-1 3,-1 6,-2 9,-4 3,-1 6,-3 8,-4 2,-2 4,-3 6,-6 4,-4 8,-8 10,-14 6,-11 5,-18 6,-19l0 -7c-1,0 -1,-4 -1,-5 -1,-8 -5,-16 -9,-22 0,-1 -1,-1 -1,-2 -4,-4 -7,-7 -11,-10 -3,-2 -5,-4 -8,-5 -4,-2 -9,-4 -14,-4 -1,0 -5,-1 -6,-1l-6 0c-1,1 -14,0 -27,10 -3,2 -5,3 -7,5 -7,8 -13,18 -14,29 0,1 -1,5 -1,5z"/>
   <path class="fil1" d="M62 43c1,2 0,2 -1,3l-3 3c0,1 -1,1 -1,1l-11 11c-1,1 -2,2 -2,3 1,2 4,3 5,4 1,1 2,1 3,2 0,0 1,1 2,2 1,0 2,1 3,1l5 4c1,1 4,3 6,1 2,-1 2,-4 3,-6 1,-5 6,-34 6,-38 -1,-3 -3,-3 -6,-2 -2,1 -4,1 -6,2 -13,5 -25,10 -37,16 -2,1 -8,3 -8,4 0,2 1,2 2,3 2,1 4,1 6,2 7,2 8,1 13,-2 4,-3 7,-5 11,-7l7 -5c1,-1 2,-2 3,-2z"/>
  </g>
 </g>
</svg>
