<svg width="30" height="28" xmlns="http://www.w3.org/2000/svg">
 <defs>
  <style type="text/css">
   <![CDATA[
    .fil0 {fill:#26A4E3}
    .fil1 {fill:#FEFEFE}
   ]]>
  </style>
 </defs>
 <g>
  <title>background</title>
  <rect fill="none" id="canvas_background" height="30" width="32" y="-1" x="-1"/>
 </g>
 <g>
  <title>Layer 1</title>
  <g stroke="null" id="Слой_x0020_1">
   <metadata stroke="null" transform="translate(-0.016950547695159912,0) translate(0,0.000004291534423828125) translate(1.5172300338745117,1.3448100090026855) scale(0.5929086208343506,0.5735626816749573) translate(-1.5172300338745117,-1.3448100090026855) translate(2.5589609146118164,2.344660997390747) scale(1.025429606437683,1) translate(-2.5589609146118164,-2.344660997390747) translate(47.46104049682617,2.344660997390747) scale(1.0247989892959595,1) translate(-47.46104049682617,-2.344660997390747) translate(1.3469972610473633,2.344660997390747) scale(1.0120995044708252,1) translate(-1.3469972610473633,-2.344660997390747) translate(1.330894112586975,47.655029296875) scale(1,1.0260872840881348) translate(-1.330894112586975,-47.655029296875) " id="CorelCorpID_0Corel-Layer"/>
   <g stroke="null" id="_2786033081088">
    <path stroke="null" id="svg_1" d="m17.565485,11.587338c-0.270049,0 -0.540098,0.253966 -0.810154,0.507927l-1.890356,1.269826c-1.080203,0.507933 -1.890363,1.01586 -2.970565,1.777759c-1.350258,0.761893 -1.620301,1.015854 -3.510664,0.507927c-0.540098,-0.253966 -1.080203,-0.253966 -1.620307,-0.507927c-0.270049,-0.253966 -0.540098,-0.253966 -0.540098,-0.761899c0,-0.253966 1.620307,-0.761893 2.160405,-1.01586c3.240615,-1.523786 6.481229,-2.793612 9.991893,-4.063438c0.540105,-0.25396 1.080209,-0.25396 1.620307,-0.507927c0.810154,-0.253966 1.350258,-0.253966 1.620307,0.507927c0,1.01586 -1.350252,8.380843 -1.620307,9.650663c-0.270049,0.507933 -0.270049,1.269826 -0.810154,1.523792c-0.540098,0.507927 -1.350258,0 -1.620307,-0.253966l-1.350252,-1.01586c-0.270055,0 -0.540105,-0.253966 -0.81016,-0.253966c-0.270043,-0.253966 -0.540098,-0.507927 -0.540098,-0.507927c-0.270049,-0.253966 -0.540105,-0.253966 -0.810154,-0.507933c-0.270049,-0.253966 -1.080209,-0.507927 -1.350252,-1.01586c0,-0.25396 0.270049,-0.507927 0.540098,-0.761893l2.970565,-2.793612c0,0 0.270049,0 0.270049,-0.253966l0.810154,-0.761893c0.270049,-0.253966 0.540098,-0.253966 0.270049,-0.761893l0,0zm-16.743171,1.523786l0,1.523792c0,0 0,1.01586 0.270049,1.269826c0,0.507927 0,1.015854 0.270055,1.26982c0.540098,2.539646 1.890356,4.571365 3.510664,6.095157c1.890356,2.031719 4.860922,3.301539 7.831481,3.809472c0.270055,0 1.350258,0 1.350258,0.25396l1.890356,0c0,-0.25396 1.080209,-0.25396 1.350258,-0.25396c0.540098,0 1.080203,-0.253966 1.350258,-0.253966c0.810147,-0.253966 1.620301,-0.507933 2.430455,-1.01586c0.810154,-0.253966 1.620307,-0.761893 2.160412,-1.01586c0.540105,-0.507927 1.080203,-0.761893 1.620307,-1.523786c1.080203,-1.01586 2.160405,-2.031719 2.70051,-3.555511c1.620307,-2.793612 1.350258,-4.571359 1.620307,-4.825325l0,-1.777759c-0.270049,0 -0.270049,-1.01586 -0.270049,-1.26982c-0.270049,-2.031719 -1.350258,-4.063438 -2.430461,-5.587224c0,-0.253966 -0.270049,-0.253966 -0.270049,-0.507933c-1.080209,-1.01586 -1.890363,-1.777753 -2.970565,-2.539646c-0.810154,-0.507933 -1.350258,-1.01586 -2.160412,-1.269826c-1.080203,-0.507933 -2.430461,-1.01586 -3.780713,-1.01586c-0.270049,0 -1.350258,-0.253966 -1.620307,-0.253966l-1.620307,0c-0.270049,0.253966 -3.780719,0 -7.291383,2.539652c-0.810154,0.507927 -1.350258,0.761893 -1.890356,1.26982c-1.890363,2.031719 -3.510664,4.571365 -3.780719,7.364983c0,0.25396 -0.270049,1.26982 -0.270049,1.26982z" class="fil0"/>
    <path stroke="null" id="svg_2" d="m17.565485,11.587338c0.270049,0.507927 0,0.507927 -0.270049,0.761893l-0.810154,0.761899c0,0.25396 -0.270055,0.25396 -0.270055,0.25396l-2.970559,2.793612c-0.270049,0.253966 -0.540098,0.507933 -0.540098,0.761893c0.270043,0.507933 1.080203,0.761893 1.350252,1.01586c0.270049,0.253966 0.540105,0.253966 0.810154,0.507933c0,0 0.270049,0.25396 0.540098,0.507927c0.270055,0 0.540105,0.253966 0.81016,0.253966l1.350252,1.01586c0.270049,0.253966 1.080203,0.761893 1.620307,0.253966c0.540105,-0.253966 0.540105,-1.01586 0.810154,-1.523792c0.270049,-1.26982 1.620307,-8.634803 1.620307,-9.650663c-0.270049,-0.761893 -0.810154,-0.761893 -1.620307,-0.507927c-0.540098,0.25396 -1.080203,0.25396 -1.620307,0.507927c-3.510664,1.269826 -6.751278,2.539652 -9.991893,4.063438c-0.540098,0.253966 -2.160405,0.761899 -2.160405,1.01586c0,0.507933 0.270049,0.507933 0.540098,0.761893c0.540105,0.253966 1.080209,0.253966 1.620307,0.507933c1.890363,0.507927 2.160405,0.253966 3.510664,-0.507933c1.080209,-0.761893 1.890363,-1.26982 2.970565,-1.777753l1.890356,-1.269826c0.270055,-0.25396 0.540105,-0.507927 0.810154,-0.507927z" class="fil1"/>
   </g>
  </g>
 </g>
</svg>