<svg width="30.000000000000004" height="30.000000000000004" xmlns="http://www.w3.org/2000/svg">
 <defs>
  <style type="text/css">
   <![CDATA[
    .fil0 {fill:#31D850}
    .fil1 {fill:#FEFFFE}
   ]]>
  </style>
 </defs>
 <g>
  <title>background</title>
  <rect fill="none" id="canvas_background" height="32" width="32" y="-1" x="-1"/>
 </g>
 <g>
  <title>Layer 1</title>
  <g stroke="null" id="Слой_x0020_1">
   <metadata stroke="null" transform="translate(0.020043373107910156,0) translate(0,-0.09131622314453125) translate(0.37980079650878906,1.123697280883789) scale(0.7406998872756958,0.7371357679367065) translate(-0.37980079650878906,-1.123697280883789) translate(0.5127619504928589,1.524412751197815) scale(0.8345102071762085,0.782076358795166) translate(-0.5127619504928589,-1.524412751197815) translate(0.6144434809684753,1.9491833448410034) scale(1,1.0591070652008057) translate(-0.6144434809684753,-1.9491833448410034) " id="CorelCorpID_0Corel-Layer"/>
   <g stroke="null" id="_2786260401232">
    <path stroke="null" id="svg_1" d="m6.730787,23.162084c0,-0.502282 0.787543,-2.762554 0.787543,-3.515978c0.262514,-0.251141 0.262514,-0.502282 0.262514,-0.753424c-0.262514,-0.251141 -0.262514,-0.502282 -0.262514,-0.753424c-1.575086,-3.013695 -0.787543,-6.027391 1.050058,-8.287661c2.887659,-3.264836 8.662976,-4.01826 12.338178,-0.502282c1.312572,1.255707 2.625144,3.264836 2.625144,6.027391c-0.262514,1.757989 -0.787543,3.515978 -2.100115,4.771684c-2.100115,2.511413 -6.037832,3.515978 -9.450519,2.260271c-1.050058,-0.502282 -0.787543,-0.502282 -1.837601,-0.251141c-0.525029,0.251141 -1.050058,0.251141 -1.837601,0.502282c-0.525029,0.251141 -1.050058,0.251141 -1.575086,0.502282l0,0.000001l-0.000001,-0.000001zm-6.300346,-7.031955c0.525029,7.283097 7.350404,13.310487 15.750866,12.808204c7.612919,-0.502282 13.913265,-6.780814 13.388236,-14.817335c-0.525029,-7.534238 -7.08789,-13.561628 -15.488352,-13.059346c-7.875433,0.502282 -14.17578,7.031955 -13.650751,15.068477l0.000001,0z" class="fil0"/>
    <path stroke="null" id="svg_2" d="m11.981076,11.107303c1.050058,-0.251141 1.050058,0.251141 1.312572,1.004565c0.262514,0.502282 0.525029,1.004565 0.262514,1.506848c-0.787543,0.502282 -0.787543,0.753424 -0.262514,1.506848c0.525029,0.502282 0.787543,0.753424 1.050058,1.004565c0.262514,0.251141 1.312572,0.753424 1.575086,1.004565c0.525029,0 1.050058,-1.004565 1.312572,-1.004565c0.262514,0 1.312572,0.502282 1.575086,0.753424c0.262514,0 0.525029,0 0.525029,0.502282c0,0.251141 0,0.753424 -0.262514,0.753424c-0.262514,0.502282 -0.787543,0.753424 -1.575086,1.004565c-0.525029,0 -1.312572,-0.251141 -1.837601,-0.502282c-0.525029,-0.251141 -1.050058,-0.502282 -1.575086,-0.753424c-1.050058,-0.753424 -2.625144,-2.260271 -3.150173,-3.767119c-0.525029,-1.255707 0,-2.762554 1.050058,-3.013695l-0.000001,0.000001l0.000001,-0.000001zm-3.412688,10.045651l2.36263,-0.502282c0.262514,0 0.262514,-0.251141 0.525029,0c0.787543,0.502282 1.837601,0.753424 2.887659,1.004565c2.100115,0.251141 3.675202,-0.502282 5.250289,-1.757989c0.262514,0 0.262514,-0.251141 0.525029,-0.502282c0.262514,-0.251141 0.787543,-1.004565 1.050058,-1.506848c0.525029,-0.753424 0.787543,-1.757989 0.787543,-2.762554c0.262514,-2.00913 -0.787543,-3.767119 -2.100115,-4.771684c-2.887659,-2.762554 -7.612919,-2.511413 -9.975549,0.251141c-1.837601,2.260271 -2.36263,5.273967 -0.787543,7.785379c0.262514,0.502282 0.262514,0.502282 0,1.255707c-0.262514,0.502282 -0.262514,1.004565 -0.525029,1.506848l0,-0.000001l0.000001,-0.000001z" class="fil0"/>
    <path stroke="null" id="svg_3" d="m8.568388,21.152954c0.262514,-0.502282 0.262514,-1.004565 0.525029,-1.506848c0.262514,-0.753424 0.262514,-0.753424 0,-1.255707c-1.575086,-2.511413 -1.050058,-5.525108 0.787543,-7.785379c2.36263,-2.762554 7.08789,-3.013695 9.975549,-0.251141c1.312572,1.004565 2.36263,2.762554 2.100115,4.771684c0,1.004565 -0.262514,2.00913 -0.787543,2.762554c-0.262514,0.502282 -0.787543,1.255707 -1.050058,1.506848c-0.262514,0.251141 -0.262514,0.502282 -0.525029,0.502282c-1.575086,1.255707 -3.150173,2.00913 -5.250289,1.757989c-1.050058,-0.251141 -2.100115,-0.502282 -2.887659,-1.004565c-0.262514,-0.251141 -0.262514,0 -0.525029,0l-2.36263,0.502282l0,0.000001l-0.000001,0.000001zm-1.837601,2.00913c0.525029,-0.251141 1.050058,-0.251141 1.575086,-0.502282c0.787543,-0.251141 1.312572,-0.251141 1.837601,-0.502282c1.050058,-0.251141 0.787543,-0.251141 1.837601,0.251141c3.412688,1.255707 7.350404,0.251141 9.450519,-2.260271c1.312572,-1.255707 1.837601,-3.013695 2.100115,-4.771684c0,-2.762554 -1.312572,-4.771684 -2.625144,-6.027391c-3.675202,-3.515978 -9.450519,-2.762554 -12.338178,0.502282c-1.837601,2.260271 -2.625144,5.273967 -1.050058,8.287661c0,0.251141 0,0.502282 0.262514,0.753424c0,0.251141 0,0.502282 -0.262514,0.753424c0,0.753424 -0.787543,3.013695 -0.787543,3.515978l0,-0.000001l0.000001,0.000001z" class="fil1"/>
    <path stroke="null" id="svg_4" d="m11.981076,11.107303c-1.050058,0.251141 -1.575086,1.757989 -1.050058,3.013695c0.525029,1.506848 2.100115,3.013695 3.150173,3.767119c0.525029,0.251141 1.050058,0.502282 1.575086,0.753424c0.525029,0.251141 1.312572,0.502282 1.837601,0.502282c0.787543,-0.251141 1.312572,-0.502282 1.575086,-1.004565c0.262514,0 0.262514,-0.502282 0.262514,-0.753424c0,-0.502282 -0.262514,-0.502282 -0.525029,-0.502282c-0.262514,-0.251141 -1.312572,-0.753424 -1.575086,-0.753424c-0.262514,0 -0.787543,1.004565 -1.312572,1.004565c-0.262514,-0.251141 -1.312572,-0.753424 -1.575086,-1.004565c-0.262514,-0.251141 -0.525029,-0.502282 -1.050058,-1.004565c-0.525029,-0.753424 -0.525029,-1.004565 0.262514,-1.506848c0.262514,-0.502282 0,-1.004565 -0.262514,-1.506848c-0.262514,-0.753424 -0.262514,-1.255707 -1.312572,-1.004565l0.000001,-0.000001l-0.000001,0.000001z" class="fil1"/>
   </g>
  </g>
 </g>
</svg>