<svg width="30.000000000000004" height="30.000000000000004" xmlns="http://www.w3.org/2000/svg" xmlns:xlink="http://www.w3.org/1999/xlink">
 <style>.st0{clip-path:url(#SVGID_2_);fill:#5181b8}.st1{fill-rule:evenodd;clip-rule:evenodd;fill:#fff}</style>
 <g>
  <title>background</title>
  <rect fill="none" id="canvas_background" height="32" width="32" y="-1" x="-1"/>
 </g>
 <g>
  <title>Layer 1</title>
  <g stroke="null" id="Base">
   <defs stroke="null" transform="translate(-0.05804634094238281,0) translate(0,1.2577428817749023) translate(0,0) scale(0.14538826048374176,0.13236065208911896) translate(0,0) translate(0,0) scale(1.0254580974578857,1.0279637575149536) translate(0,0) ">
    <path stroke="null" d="m71.6,5l58.9,0c53.8,0 66.5,12.8 66.5,66.6l0,58.9c0,53.8 -12.8,66.5 -66.6,66.5l-58.9,0c-53.8,0 -66.5,-12.8 -66.5,-66.6l0,-58.9c0,-53.7 12.8,-66.5 66.6,-66.5z" id="SVGID_1_"/>
   </defs>
   <use stroke="null" x="0" y="0" transform="matrix(0.14908956898836928,0,0,0.1360619532686602,-0.058046340942382806,1.2577428817749023) " id="svg_1" fill="#5181b8" clip-rule="evenodd" fill-rule="evenodd" xlink:href="#SVGID_1_"/>
   <clipPath stroke="null" transform="translate(-0.05804634094238281,0) translate(0,1.2577428817749023) translate(0,0) scale(0.14538826048374176,0.13236065208911896) translate(0,0) translate(0,0) scale(1.0254580974578857,1.0279637575149536) translate(0,0) " id="SVGID_2_">
    <use stroke="null" id="svg_2" xlink:href="#SVGID_1_"/>
   </clipPath>
   <path stroke="null" id="svg_3" d="m-0.058046,1.257743l30.116093,0l0,27.484515l-30.116093,0l0,-27.484515z" class="st0"/>
  </g>
  <path stroke="null" d="m23.810783,10.124237c0.129938,-0.444598 0,-0.755817 -0.606375,-0.755817l-2.02125,0c-0.51975,0 -0.75075,0.281579 -0.880688,0.592798c0,0 -1.025063,2.578671 -2.48325,4.238505c-0.476438,0.489058 -0.678563,0.637258 -0.938438,0.637258c-0.129938,0 -0.317625,-0.148199 -0.317625,-0.592798l0,-4.119946c0,-0.533518 -0.144375,-0.755817 -0.5775,-0.755817l-3.17625,0c-0.317625,0 -0.51975,0.251939 -0.51975,0.474238c0,0.503878 0.721875,0.622438 0.8085,2.015513l0,3.052909c0,0.666898 -0.1155,0.785457 -0.375375,0.785457c-0.678563,0 -2.353313,-2.578671 -3.335063,-5.542661c-0.202125,-0.548338 -0.389813,-0.785457 -0.909563,-0.785457l-2.02125,0c-0.5775,0 -0.693,0.281579 -0.693,0.592798c0,0.548338 0.678563,3.275209 3.190688,6.876456c1.67475,2.460112 4.028063,3.793907 6.164813,3.793907c1.284938,0 1.44375,-0.296399 1.44375,-0.800277l0,-1.867314c0,-0.592798 0.1155,-0.711358 0.534188,-0.711358c0.303188,0 0.8085,0.148199 2.006813,1.333795c1.371563,1.407895 1.602563,2.045153 2.36775,2.045153l2.02125,0c0.5775,0 0.86625,-0.296399 0.693,-0.874377c-0.187688,-0.577978 -0.837375,-1.422715 -1.703625,-2.430472c-0.476438,-0.577978 -1.183875,-1.185596 -1.386,-1.496815c-0.303188,-0.400139 -0.216563,-0.577978 0,-0.918837c0,-0.01482 2.468813,-3.571608 2.71425,-4.786843z" class="st1" id="Logo"/>
 </g>
</svg>